# Created by FreeCAD <http://www.freecadweb.org>
v 357.615784 37.686859 116.843002
v 358.163635 37.686859 136.827988
v 357.615784 37.686859 136.843018
v 358.163635 37.686859 116.858017
v 350.544739 37.686859 133.914078
v 355.027588 37.686859 136.502274
v 352.615784 37.686859 135.503265
v 347.956512 37.686859 129.431198
v 348.955505 37.686859 131.843002
v 347.615784 37.686859 126.843002
v 347.956512 37.686859 124.254814
v 350.544739 37.686859 119.771935
v 355.027588 37.686859 117.183739
v 348.955505 37.686859 121.843002
v 352.615784 37.686859 118.182747
v 360.203979 35.646515 136.502274
v 362.615784 33.234711 135.503265
v 365.549316 30.301176 132.930618
v 364.686859 31.163633 133.914078
v 360.203979 35.646515 117.183739
v 362.615784 33.234711 118.182747
v 366.276031 29.574461 121.843002
v 366.854584 28.995909 123.016167
v 366.276031 29.574461 131.843002
v 365.549316 30.301176 120.755386
v 364.686859 31.163633 119.771935
v 367.530243 28.320250 128.148270
v 367.530243 28.320250 125.537743
v 367.615784 28.234709 126.843002
v 367.275024 28.575453 129.431198
v 367.275024 28.575453 124.254814
v 366.854584 28.995909 130.669846
v 362.615784 44.186859 135.503265
v 364.686859 44.186859 133.914078
v 360.203979 44.186859 136.502274
v 357.615784 44.186859 136.843018
v 355.027588 44.186859 136.502274
v 352.615784 44.186859 135.503265
v 350.544739 44.186859 133.914078
v 348.955505 44.186859 131.843002
v 347.956512 44.186859 129.431198
v 347.615784 44.186859 126.843002
v 347.956512 44.186859 124.254814
v 348.955505 44.186859 121.843002
v 350.544739 44.186859 119.771935
v 352.615784 44.186859 118.182747
v 355.027588 44.186859 117.183739
v 357.615784 44.186859 116.843002
v 360.203979 44.186859 117.183739
v 366.276031 44.186859 131.843002
v 367.275024 44.186859 129.431198
v 367.615784 44.186859 126.843002
v 367.275024 44.186859 124.254814
v 366.276031 44.186859 121.843002
v 362.615784 44.186859 118.182747
v 364.686859 44.186859 119.771935
v 357.615784 44.186859 126.843002
vn 0.000000 -1.000000 0.000000
vn 0.000000 -1.000000 0.000000
vn 0.000000 -1.000000 0.000000
vn 0.000000 -1.000000 0.000000
vn 0.000000 -1.000000 0.000000
vn 0.000000 -1.000000 0.000000
vn 0.000000 -1.000000 0.000000
vn 0.000000 -1.000000 0.000000
vn 0.000000 -1.000000 0.000000
vn 0.000000 -1.000000 0.000000
vn 0.000000 -1.000000 0.000000
vn 0.000000 -1.000000 0.000000
vn 0.000000 -1.000000 0.000000
vn -0.707107 -0.707107 -0.000000
vn -0.707107 -0.707107 0.000000
vn -0.707107 -0.707107 -0.000000
vn -0.707107 -0.707106 0.000000
vn -0.707107 -0.707107 -0.000000
vn -0.707107 -0.707107 -0.000000
vn -0.707107 -0.707107 0.000000
vn -0.707107 -0.707107 0.000000
vn -0.707107 -0.707107 0.000000
vn -0.707107 -0.707107 0.000000
vn -0.707107 -0.707106 0.000000
vn -0.707107 -0.707107 -0.000000
vn -0.707086 -0.707128 -0.000000
vn -0.707086 -0.707128 0.000000
vn -0.707120 -0.707094 -0.000000
vn -0.707120 -0.707094 0.000000
vn -0.707107 -0.707107 0.000000
vn 0.382685 -0.000000 0.923879
vn 0.608760 0.000000 0.793354
vn 0.382685 0.000000 0.923879
vn 0.157641 -0.000000 0.987497
vn 0.130522 0.008709 0.991407
vn 0.027424 0.000000 0.999624
vn -0.130527 0.000000 0.991445
vn -0.130527 0.000000 0.991445
vn -0.382685 0.000000 0.923879
vn -0.382685 0.000000 0.923879
vn -0.608766 0.000000 0.793350
vn -0.608766 0.000000 0.793350
vn -0.793346 0.000000 0.608771
vn -0.793346 0.000000 0.608771
vn -0.923881 0.000000 0.382680
vn -0.923881 0.000000 0.382680
vn -0.991446 0.000000 0.130521
vn -0.991446 0.000000 0.130521
vn -0.991445 0.000000 -0.130521
vn -0.991445 0.000000 -0.130521
vn -0.923881 0.000000 -0.382679
vn -0.923881 0.000000 -0.382679
vn -0.793345 0.000000 -0.608773
vn -0.793345 0.000000 -0.608773
vn -0.608766 -0.000000 -0.793350
vn -0.608766 0.000000 -0.793350
vn -0.382685 -0.000000 -0.923879
vn -0.382685 0.000000 -0.923879
vn -0.130524 -0.000000 -0.991445
vn -0.130524 0.000000 -0.991445
vn 0.130524 0.000000 -0.991445
vn 0.027373 0.041457 -0.998765
vn 0.751845 -0.000000 0.659340
vn 0.793342 0.006161 0.608745
vn 0.608760 -0.000000 0.793354
vn 0.896868 -0.000000 0.442298
vn 0.923866 0.005633 0.382674
vn 0.831472 0.000000 0.555567
vn 0.980781 -0.000000 0.195111
vn 0.991430 0.005393 0.130531
vn 0.946936 0.000000 0.321423
vn 0.997859 0.000000 -0.065395
vn 0.991430 0.005393 -0.130531
vn 0.997859 0.000000 0.065395
vn 0.946936 0.000000 -0.321423
vn 0.923866 0.005633 -0.382673
vn 0.980781 0.000000 -0.195111
vn 0.756805 0.011581 -0.653538
vn 0.831472 0.000000 -0.555567
vn 0.896869 0.000000 -0.442296
vn 0.157644 0.000000 -0.987496
vn 0.382685 0.000000 -0.923879
vn 0.382685 0.000000 -0.923879
vn 0.608760 0.000000 -0.793354
vn 0.608760 0.000000 -0.793354
vn 0.793356 0.000000 -0.608758
vn 0.000000 1.000000 0.000000
vn 0.000000 1.000000 0.000000
vn 0.000000 1.000000 0.000000
vn 0.000000 1.000000 0.000000
vn 0.000000 1.000000 0.000000
vn 0.000000 1.000000 0.000000
vn 0.000000 1.000000 -0.000000
vn 0.000000 1.000000 0.000000
vn 0.000000 1.000000 -0.000000
vn 0.000000 1.000000 -0.000000
vn 0.000000 1.000000 0.000000
vn 0.000000 1.000000 0.000000
vn 0.000000 1.000000 0.000000
vn 0.000000 1.000000 -0.000000
vn 0.000000 1.000000 -0.000000
vn 0.000000 1.000000 0.000000
vn 0.000000 1.000000 -0.000000
vn 0.000000 1.000000 0.000000
vn 0.000000 1.000000 0.000000
vn 0.000000 1.000000 0.000000
vn 0.000000 1.000000 0.000000
vn 0.000000 1.000000 0.000000
vn 0.000000 1.000000 0.000000
vn 0.000000 1.000000 0.000000
f 1//1 2//1 3//1
f 1//2 4//2 2//2
f 5//3 3//3 6//3
f 5//4 6//4 7//4
f 1//5 3//5 5//5
f 8//6 5//6 9//6
f 10//7 1//7 5//7
f 10//8 5//8 8//8
f 11//9 1//9 10//9
f 12//10 13//10 1//10
f 12//11 1//11 11//11
f 12//12 11//12 14//12
f 13//13 12//13 15//13
f 2//14 4//14 16//14
f 4//15 17//15 16//15
f 4//16 18//16 19//16
f 4//17 19//17 17//17
f 4//18 20//18 18//18
f 20//19 21//19 18//19
f 22//20 23//20 24//20
f 25//21 24//21 18//21
f 25//22 22//22 24//22
f 26//23 25//23 18//23
f 21//24 26//24 18//24
f 27//25 28//25 29//25
f 30//26 31//26 28//26
f 30//27 28//27 27//27
f 32//28 23//28 31//28
f 32//29 31//29 30//29
f 24//30 23//30 32//30
f 17//31 33//31 16//31
f 34//32 33//32 17//32
f 33//33 35//33 16//33
f 16//34 35//34 2//34
f 35//35 36//35 2//35
f 2//36 36//36 3//36
f 36//37 37//37 3//37
f 3//38 37//38 6//38
f 37//39 38//39 6//39
f 6//40 38//40 7//40
f 38//41 39//41 7//41
f 7//42 39//42 5//42
f 40//43 5//43 39//43
f 9//44 5//44 40//44
f 41//45 9//45 40//45
f 8//46 9//46 41//46
f 42//47 8//47 41//47
f 10//48 8//48 42//48
f 43//49 10//49 42//49
f 11//50 10//50 43//50
f 44//51 11//51 43//51
f 14//52 11//52 44//52
f 45//53 14//53 44//53
f 12//54 14//54 45//54
f 45//55 46//55 12//55
f 12//56 46//56 15//56
f 46//57 47//57 15//57
f 15//58 47//58 13//58
f 47//59 48//59 13//59
f 13//60 48//60 1//60
f 48//61 49//61 1//61
f 1//62 49//62 4//62
f 19//63 18//63 34//63
f 34//64 18//64 50//64
f 19//65 34//65 17//65
f 24//66 32//66 50//66
f 50//67 32//67 51//67
f 18//68 24//68 50//68
f 30//69 27//69 51//69
f 51//70 27//70 52//70
f 32//71 30//71 51//71
f 29//72 28//72 52//72
f 52//73 28//73 53//73
f 27//74 29//74 52//74
f 31//75 23//75 53//75
f 53//76 23//76 54//76
f 28//77 31//77 53//77
f 25//78 26//78 54//78
f 22//79 25//79 54//79
f 23//80 22//80 54//80
f 4//81 49//81 20//81
f 20//82 49//82 21//82
f 49//83 55//83 21//83
f 21//84 55//84 26//84
f 55//85 56//85 26//85
f 54//86 26//86 56//86
f 35//87 57//87 36//87
f 36//88 57//88 37//88
f 33//89 57//89 35//89
f 50//90 57//90 34//90
f 34//91 57//91 33//91
f 51//92 57//92 50//92
f 53//93 57//93 52//93
f 52//94 57//94 51//94
f 54//95 57//95 53//95
f 56//96 57//96 54//96
f 56//97 55//97 57//97
f 55//98 49//98 57//98
f 49//99 48//99 57//99
f 48//100 47//100 57//100
f 47//101 46//101 57//101
f 57//102 44//102 43//102
f 46//103 45//103 57//103
f 57//104 45//104 44//104
f 57//105 41//105 40//105
f 57//106 42//106 41//106
f 57//107 43//107 42//107
f 38//108 57//108 39//108
f 37//109 57//109 38//109
f 57//110 40//110 39//110
