# Created by FreeCAD <http://www.freecadweb.org>
v -35.366066 981.836670 1006.140930
v 45.633934 981.836670 1006.140930
v 45.633934 980.774780 1003.751587
v -35.366066 982.467529 1008.678345
v 45.633934 982.467529 1008.678345
v -35.366066 982.648132 1011.286743
v 45.633934 982.648132 1011.286743
v -35.366066 982.373108 1013.886902
v 45.633934 982.373108 1013.886902
v -35.366066 981.650757 1016.399841
v 45.633934 981.650757 1016.399841
v -35.366066 980.502991 1018.749146
v 45.633934 980.502991 1018.749146
v -35.366066 978.964722 1020.863403
v 45.633934 978.964722 1020.863403
v -35.366066 977.082642 1022.678467
v 45.633934 977.082642 1022.678467
v -35.366066 974.914001 1024.139160
v 45.633934 974.914001 1024.139160
v -35.366066 972.524719 1025.201050
v 45.633934 972.524719 1025.201050
v -35.366066 969.987305 1025.831909
v 45.633934 969.987305 1025.831909
v -35.366066 967.378845 1026.012573
v 45.633934 967.378845 1026.012573
v -35.366066 964.778687 1025.737549
v 45.633934 964.778687 1025.737549
v -35.366066 962.265808 1025.015137
v 45.633934 962.265808 1025.015137
v -35.366066 959.916504 1023.867371
v 45.633934 959.916504 1023.867371
v -35.366066 957.802185 1022.329102
v 45.633934 957.802185 1022.329102
v -35.366066 955.987122 1020.447021
v 45.633934 955.987122 1020.447021
v -35.366066 954.526489 1018.278381
v 45.633934 954.526489 1018.278381
v -35.366066 953.464600 1015.889099
v 45.633934 953.464600 1015.889099
v -35.366066 952.833740 1013.351624
v 45.633934 952.833740 1013.351624
v -35.366066 952.653076 1010.743225
v 45.633934 952.653076 1010.743225
v -35.366066 952.928101 1008.143066
v 45.633934 952.928101 1008.143066
v -35.366066 953.650513 1005.630127
v 45.633934 953.650513 1005.630127
v -35.366066 954.798279 1003.280884
v 45.633934 954.798279 1003.280884
v -35.366066 956.336548 1001.166565
v 45.633934 956.336548 1001.166565
v -35.366066 958.218567 999.351501
v 45.633934 958.218567 999.351501
v -35.366066 960.387207 997.890869
v 45.633934 960.387207 997.890869
v -35.366066 962.776550 996.828979
v 45.633934 962.776550 996.828979
v -35.366066 965.313965 996.198120
v 45.633934 965.313965 996.198120
v -35.366066 967.922363 996.017456
v 45.633934 967.922363 996.017456
v -35.366066 970.522583 996.292480
v 45.633934 970.522583 996.292480
v -35.366066 973.035461 997.014893
v 45.633934 973.035461 997.014893
v -35.366066 975.384766 998.162659
v 45.633934 975.384766 998.162659
v -35.366066 977.499023 999.700928
v 45.633934 977.499023 999.700928
v -35.366066 979.314087 1001.582947
v 45.633934 979.314087 1001.582947
v -35.366066 980.774780 1003.751587
v 47.633934 957.542297 1019.189453
v 47.633934 959.115295 1020.820557
v 47.633934 967.650635 1011.015015
v 47.633934 956.276367 1017.309937
v 47.633934 955.356079 1015.239197
v 47.633934 962.983765 1023.148438
v 47.633934 960.947693 1022.153687
v 47.633934 965.161621 1023.774475
v 47.633934 967.415100 1024.012817
v 47.633934 969.675720 1023.856262
v 47.633934 971.874817 1023.309570
v 47.633934 973.945557 1022.389221
v 47.633934 975.825073 1021.123352
v 47.633934 977.456177 1019.550293
v 47.633934 978.789307 1017.717896
v 47.633934 979.784058 1015.681824
v 47.633934 980.410095 1013.504028
v 47.633934 980.491943 1008.989868
v 47.633934 979.945190 1006.790771
v 47.633934 980.648499 1011.250549
v 47.633934 977.758972 1002.840576
v 47.633934 976.185913 1001.209473
v 47.633934 979.024841 1004.720032
v 47.633934 972.317505 998.881531
v 47.633934 970.139648 998.255493
v 47.633934 974.353516 999.876282
v 47.633934 965.625549 998.173706
v 47.633934 967.886169 998.017151
v 47.633934 963.426392 998.720459
v 47.633934 959.476196 1000.906677
v 47.633934 961.355652 999.640747
v 47.633934 957.845093 1002.479675
v 47.633934 955.517151 1006.348145
v 47.633934 956.511902 1004.312073
v 47.633934 954.891113 1008.526001
v 47.633934 954.809326 1013.040100
v 47.633934 954.652771 1010.779480
v -37.366066 979.945190 1006.790771
v -37.366066 980.491943 1008.989868
v -37.366066 967.650635 1011.015015
v -37.366066 979.024841 1004.720032
v -37.366066 977.758972 1002.840576
v -37.366066 974.353516 999.876282
v -37.366066 972.317505 998.881531
v -37.366066 976.185913 1001.209473
v -37.366066 965.625549 998.173706
v -37.366066 967.886169 998.017151
v -37.366066 970.139648 998.255493
v -37.366066 963.426392 998.720459
v -37.366066 959.476196 1000.906677
v -37.366066 961.355652 999.640747
v -37.366066 957.845093 1002.479675
v -37.366066 955.517151 1006.348145
v -37.366066 956.511902 1004.312073
v -37.366066 954.891113 1008.526001
v -37.366066 954.809326 1013.040100
v -37.366066 954.652771 1010.779480
v -37.366066 955.356079 1015.239197
v -37.366066 957.542297 1019.189453
v -37.366066 956.276367 1017.309937
v -37.366066 980.648499 1011.250549
v -37.366066 979.784058 1015.681824
v -37.366066 980.410095 1013.504028
v -37.366066 975.825073 1021.123352
v -37.366066 977.456177 1019.550293
v -37.366066 978.789307 1017.717896
v -37.366066 969.675720 1023.856262
v -37.366066 971.874817 1023.309570
v -37.366066 973.945557 1022.389221
v -37.366066 962.983765 1023.148438
v -37.366066 965.161621 1023.774475
v -37.366066 967.415100 1024.012817
v -37.366066 959.115295 1020.820557
v -37.366066 960.947693 1022.153687
vn 0.000000 0.913817 -0.406125
vn 0.000000 0.970456 -0.241278
vn 0.000000 0.970456 -0.241278
vn 0.000000 0.997612 -0.069074
vn 0.000000 0.997612 -0.069074
vn -0.000000 0.994453 0.105185
vn -0.000000 0.994453 0.105185
vn 0.000000 0.961081 0.276265
vn 0.000000 0.961081 0.276265
vn 0.000000 0.898502 0.438969
vn 0.000000 0.898502 0.438969
vn 0.000000 0.808622 0.588328
vn 0.000000 0.808622 0.588328
vn 0.000000 0.694175 0.719806
vn 0.000000 0.694175 0.719806
vn 0.000000 0.558648 0.829405
vn 0.000000 0.558648 0.829405
vn 0.000000 0.406134 0.913813
vn 0.000000 0.406134 0.913813
vn 0.000000 0.241278 0.970456
vn 0.000000 0.241278 0.970456
vn 0.000000 0.069095 0.997610
vn 0.000000 0.069095 0.997610
vn 0.000000 -0.105185 0.994453
vn 0.000000 -0.105185 0.994453
vn 0.000000 -0.276293 0.961073
vn 0.000000 -0.276293 0.961073
vn 0.000000 -0.438969 0.898502
vn 0.000000 -0.438969 0.898502
vn 0.000000 -0.588317 0.808630
vn 0.000000 -0.588317 0.808630
vn 0.000000 -0.719806 0.694175
vn 0.000000 -0.719806 0.694175
vn 0.000000 -0.829416 0.558632
vn 0.000000 -0.829416 0.558632
vn 0.000000 -0.913813 0.406134
vn 0.000000 -0.913813 0.406134
vn 0.000000 -0.970457 0.241272
vn 0.000000 -0.970457 0.241272
vn 0.000000 -0.997610 0.069097
vn 0.000000 -0.997610 0.069097
vn 0.000000 -0.994453 -0.105185
vn 0.000000 -0.994453 -0.105185
vn -0.000000 -0.961075 -0.276287
vn -0.000000 -0.961075 -0.276287
vn -0.000000 -0.898498 -0.438978
vn -0.000000 -0.898498 -0.438978
vn -0.000000 -0.808630 -0.588317
vn -0.000000 -0.808630 -0.588317
vn -0.000000 -0.694187 -0.719795
vn -0.000000 -0.694187 -0.719795
vn -0.000000 -0.558632 -0.829416
vn -0.000000 -0.558632 -0.829416
vn -0.000000 -0.406125 -0.913817
vn -0.000000 -0.406125 -0.913817
vn -0.000000 -0.241278 -0.970456
vn -0.000000 -0.241278 -0.970456
vn -0.000000 -0.069097 -0.997610
vn -0.000000 -0.069097 -0.997610
vn 0.000000 0.105183 -0.994453
vn 0.000000 0.105183 -0.994453
vn 0.000000 0.276293 -0.961073
vn 0.000000 0.276293 -0.961073
vn 0.000000 0.438969 -0.898502
vn 0.000000 0.438969 -0.898502
vn 0.000000 0.588328 -0.808622
vn 0.000000 0.588328 -0.808622
vn 0.000000 0.719795 -0.694187
vn 0.000000 0.719795 -0.694187
vn 0.000000 0.829405 -0.558648
vn 0.000000 0.829405 -0.558648
vn 0.000000 0.913817 -0.406125
vn 0.705760 -0.587600 0.395763
vn 0.705759 -0.509952 0.491786
vn 1.000000 0.000000 0.000000
vn 1.000000 0.000000 0.000000
vn 1.000000 0.000000 0.000000
vn 1.000000 0.000000 0.000000
vn 1.000000 0.000000 0.000000
vn 1.000000 0.000000 0.000000
vn 1.000000 0.000000 0.000000
vn 1.000000 0.000000 0.000000
vn 1.000000 0.000000 0.000000
vn 1.000000 0.000000 0.000000
vn 1.000000 0.000000 0.000000
vn 1.000000 0.000000 0.000000
vn 1.000000 0.000000 0.000000
vn 1.000000 0.000000 0.000000
vn 1.000000 0.000000 0.000000
vn 1.000000 0.000000 0.000000
vn 1.000000 0.000000 0.000000
vn 1.000000 0.000000 0.000000
vn 1.000000 0.000000 0.000000
vn 1.000000 0.000000 0.000000
vn 1.000000 0.000000 0.000000
vn 1.000000 0.000000 0.000000
vn 1.000000 0.000000 0.000000
vn 1.000000 0.000000 0.000000
vn 1.000000 0.000000 0.000000
vn 1.000000 0.000000 0.000000
vn 1.000000 0.000000 0.000000
vn 1.000000 0.000000 0.000000
vn 1.000000 0.000000 0.000000
vn 1.000000 0.000000 0.000000
vn 1.000000 0.000000 0.000000
vn 1.000000 0.000000 0.000000
vn 1.000000 0.000000 0.000000
vn 1.000000 0.000000 0.000000
vn 1.000000 0.000000 0.000000
vn 1.000000 0.000000 0.000000
vn 0.705756 -0.509950 0.491792
vn 0.705756 -0.416791 0.572882
vn 0.705760 -0.416794 0.572875
vn 0.705761 -0.310991 0.636542
vn 0.705758 -0.310988 0.636546
vn 0.705759 -0.195723 0.680880
vn 0.705770 -0.195737 0.680864
vn 0.705770 -0.074514 0.704511
vn 0.705773 -0.074517 0.704508
vn 0.705772 0.048944 0.706746
vn 0.705769 0.048950 0.706749
vn 0.705770 0.170915 0.687515
vn 0.705760 0.170933 0.687520
vn 0.705760 0.287734 0.647388
vn 0.705766 0.287724 0.647387
vn 0.705765 0.395754 0.587601
vn 0.705752 0.395779 0.587599
vn 0.705751 0.491801 0.509948
vn 0.705756 0.491792 0.509950
vn 0.705756 0.572882 0.416791
vn 0.705766 0.572864 0.416798
vn 0.705766 0.636538 0.310989
vn 0.705763 0.636542 0.310986
vn 0.705762 0.680875 0.195727
vn 0.705758 0.680881 0.195721
vn 0.705759 0.704520 0.074534
vn 0.705750 0.704531 0.074520
vn 0.705752 0.706767 -0.048945
vn 0.705757 0.706762 -0.048936
vn 0.705756 0.687524 -0.170936
vn 0.705758 0.687523 -0.170934
vn 0.705756 0.647392 -0.287736
vn 0.705766 0.647390 -0.287718
vn 0.705765 0.587595 -0.395763
vn 0.705758 0.587594 -0.395776
vn 0.705758 0.509943 -0.491796
vn 0.705756 0.509942 -0.491800
vn 0.705756 0.416803 -0.572873
vn 0.705757 0.416804 -0.572871
vn 0.705757 0.311001 -0.636542
vn 0.705749 0.310993 -0.636555
vn 0.705748 0.195726 -0.680890
vn 0.705760 0.195740 -0.680874
vn 0.705760 0.074515 -0.704522
vn 0.705761 0.074517 -0.704520
vn 0.705762 -0.048945 -0.706756
vn 0.705758 -0.048952 -0.706759
vn 0.705759 -0.170931 -0.687522
vn 0.705758 -0.170934 -0.687523
vn 0.705757 -0.287720 -0.647398
vn 0.705756 -0.287722 -0.647399
vn 0.705755 -0.395781 -0.587594
vn 0.705766 -0.395760 -0.587595
vn 0.705767 -0.491780 -0.509946
vn 0.705756 -0.491800 -0.509942
vn 0.705756 -0.572873 -0.416803
vn 0.705751 -0.572882 -0.416799
vn 0.705751 -0.636551 -0.310996
vn 0.705753 -0.636548 -0.310997
vn 0.705751 -0.680887 -0.195725
vn 0.705760 -0.680875 -0.195736
vn 0.705760 -0.704522 -0.074515
vn 0.705762 -0.704519 -0.074518
vn 0.705762 -0.706757 0.048945
vn 0.705758 -0.706760 0.048952
vn 0.705756 -0.687524 0.170936
vn 0.705760 -0.687521 0.170929
vn 0.705761 -0.647394 0.287718
vn 0.705756 -0.647396 0.287728
vn 0.705756 -0.587600 0.395772
vn -0.705757 0.647398 -0.287721
vn -0.705758 0.687522 -0.170936
vn -1.000000 0.000000 0.000000
vn -1.000000 0.000000 0.000000
vn -1.000000 0.000000 0.000000
vn -1.000000 0.000000 0.000000
vn -1.000000 0.000000 0.000000
vn -1.000000 0.000000 0.000000
vn -1.000000 0.000000 0.000000
vn -1.000000 0.000000 0.000000
vn -1.000000 0.000000 0.000000
vn -1.000000 0.000000 0.000000
vn -1.000000 0.000000 0.000000
vn -1.000000 0.000000 0.000000
vn -1.000000 0.000000 0.000000
vn -1.000000 0.000000 0.000000
vn -1.000000 0.000000 0.000000
vn -1.000000 0.000000 0.000000
vn -1.000000 0.000000 -0.000000
vn -1.000000 0.000000 0.000000
vn -1.000000 0.000000 -0.000000
vn -1.000000 0.000000 -0.000000
vn -1.000000 0.000000 -0.000000
vn -1.000000 0.000000 0.000000
vn -1.000000 0.000000 -0.000000
vn -1.000000 0.000000 0.000000
vn -1.000000 0.000000 -0.000000
vn -1.000000 0.000000 -0.000000
vn -1.000000 0.000000 -0.000000
vn -1.000000 0.000000 -0.000000
vn -1.000000 0.000000 -0.000000
vn -1.000000 0.000000 -0.000000
vn -1.000000 0.000000 0.000000
vn -1.000000 0.000000 0.000000
vn -1.000000 0.000000 0.000000
vn -1.000000 0.000000 -0.000000
vn -1.000000 0.000000 -0.000000
vn -1.000000 0.000000 -0.000000
vn -0.705756 0.687524 -0.170934
vn -0.705757 0.706761 -0.048944
vn -0.705752 0.706767 -0.048936
vn -0.705750 0.704530 0.074535
vn -0.705759 0.704522 0.074519
vn -0.705757 0.680880 0.195728
vn -0.705762 0.680877 0.195720
vn -0.705763 0.636540 0.310991
vn -0.705766 0.636540 0.310985
vn -0.705767 0.572874 0.416785
vn -0.705756 0.572872 0.416804
vn -0.705756 0.491798 0.509944
vn -0.705751 0.491795 0.509954
vn -0.705751 0.395762 0.587612
vn -0.705764 0.395772 0.587589
vn -0.705766 0.287732 0.647383
vn -0.705761 0.287726 0.647391
vn -0.705760 0.170918 0.687525
vn -0.705770 0.170931 0.687511
vn -0.705769 0.048945 0.706749
vn -0.705772 0.048950 0.706746
vn -0.705773 -0.074513 0.704508
vn -0.705771 -0.074518 0.704510
vn -0.705771 -0.195719 0.680868
vn -0.705760 -0.195740 0.680874
vn -0.705758 -0.310993 0.636545
vn -0.705761 -0.310987 0.636544
vn -0.705760 -0.416788 0.572879
vn -0.705756 -0.416796 0.572878
vn -0.705756 -0.509955 0.491788
vn -0.705759 -0.509948 0.491790
vn -0.705761 -0.587596 0.395769
vn -0.705756 -0.587604 0.395766
vn -0.705756 -0.647399 0.287720
vn -0.705761 -0.647391 0.287726
vn -0.705760 -0.687520 0.170935
vn -0.705757 -0.687525 0.170930
vn -0.705757 -0.706761 0.048945
vn -0.705761 -0.706756 0.048952
vn -0.705762 -0.704519 -0.074514
vn -0.705760 -0.704521 -0.074519
vn -0.705760 -0.680878 -0.195722
vn -0.705752 -0.680882 -0.195738
vn -0.705753 -0.636549 -0.310995
vn -0.705752 -0.636549 -0.310998
vn -0.705751 -0.572877 -0.416806
vn -0.705756 -0.572878 -0.416796
vn -0.705755 -0.491788 -0.509955
vn -0.705766 -0.491793 -0.509935
vn -0.705767 -0.395774 -0.587584
vn -0.705756 -0.395766 -0.587604
vn -0.705756 -0.287720 -0.647399
vn -0.705757 -0.287721 -0.647398
vn -0.705758 -0.170932 -0.687524
vn -0.705759 -0.170934 -0.687522
vn -0.705758 -0.048945 -0.706760
vn -0.705762 -0.048952 -0.706756
vn -0.705761 0.074515 -0.704520
vn -0.705760 0.074517 -0.704521
vn -0.705760 0.195722 -0.680878
vn -0.705749 0.195743 -0.680884
vn -0.705748 0.311005 -0.636550
vn -0.705756 0.310989 -0.636549
vn -0.705757 0.416803 -0.572872
vn -0.705756 0.416804 -0.572872
vn -0.705756 0.509944 -0.491798
vn -0.705758 0.509941 -0.491799
vn -0.705757 0.587601 -0.395767
vn -0.705764 0.587589 -0.395772
vn -0.705766 0.647383 -0.287732
f 1//1 2//1 3//1
f 1//2 4//2 2//2
f 4//3 5//3 2//3
f 4//4 6//4 5//4
f 6//5 7//5 5//5
f 6//6 8//6 7//6
f 8//7 9//7 7//7
f 9//8 8//8 10//8
f 11//9 9//9 10//9
f 11//10 10//10 12//10
f 13//11 11//11 12//11
f 13//12 12//12 14//12
f 15//13 13//13 14//13
f 15//14 14//14 16//14
f 17//15 15//15 16//15
f 17//16 16//16 18//16
f 19//17 17//17 18//17
f 19//18 18//18 20//18
f 21//19 19//19 20//19
f 21//20 20//20 22//20
f 23//21 21//21 22//21
f 23//22 22//22 24//22
f 25//23 23//23 24//23
f 25//24 24//24 26//24
f 27//25 25//25 26//25
f 27//26 26//26 28//26
f 29//27 27//27 28//27
f 28//28 30//28 29//28
f 30//29 31//29 29//29
f 30//30 32//30 31//30
f 32//31 33//31 31//31
f 32//32 34//32 33//32
f 34//33 35//33 33//33
f 34//34 36//34 35//34
f 36//35 37//35 35//35
f 36//36 38//36 37//36
f 38//37 39//37 37//37
f 38//38 40//38 39//38
f 40//39 41//39 39//39
f 40//40 42//40 41//40
f 42//41 43//41 41//41
f 42//42 44//42 43//42
f 44//43 45//43 43//43
f 45//44 44//44 46//44
f 47//45 45//45 46//45
f 47//46 46//46 48//46
f 49//47 47//47 48//47
f 49//48 48//48 50//48
f 51//49 49//49 50//49
f 51//50 50//50 52//50
f 53//51 51//51 52//51
f 53//52 52//52 54//52
f 55//53 53//53 54//53
f 55//54 54//54 56//54
f 57//55 55//55 56//55
f 57//56 56//56 58//56
f 59//57 57//57 58//57
f 59//58 58//58 60//58
f 61//59 59//59 60//59
f 61//60 60//60 62//60
f 63//61 61//61 62//61
f 63//62 62//62 64//62
f 65//63 63//63 64//63
f 64//64 66//64 65//64
f 66//65 67//65 65//65
f 66//66 68//66 67//66
f 68//67 69//67 67//67
f 68//68 70//68 69//68
f 70//69 71//69 69//69
f 70//70 72//70 71//70
f 72//71 3//71 71//71
f 72//72 1//72 3//72
f 37//73 73//73 35//73
f 74//74 35//74 73//74
f 75//75 73//75 76//75
f 75//76 76//76 77//76
f 75//77 74//77 73//77
f 75//78 78//78 79//78
f 75//79 79//79 74//79
f 80//80 78//80 75//80
f 81//81 80//81 75//81
f 82//82 81//82 75//82
f 83//83 82//83 75//83
f 84//84 83//84 75//84
f 85//85 84//85 75//85
f 86//86 85//86 75//86
f 87//87 86//87 75//87
f 88//88 87//88 75//88
f 89//89 88//89 75//89
f 90//90 75//90 91//90
f 92//91 75//91 90//91
f 89//92 75//92 92//92
f 93//93 75//93 94//93
f 95//94 75//94 93//94
f 91//95 75//95 95//95
f 96//96 75//96 97//96
f 98//97 75//97 96//97
f 94//98 75//98 98//98
f 75//99 99//99 100//99
f 75//100 100//100 97//100
f 75//101 101//101 99//101
f 75//102 102//102 103//102
f 75//103 103//103 101//103
f 75//104 104//104 102//104
f 75//105 105//105 106//105
f 75//106 106//106 104//106
f 75//107 107//107 105//107
f 75//108 108//108 109//108
f 75//109 109//109 107//109
f 75//110 77//110 108//110
f 74//111 33//111 35//111
f 79//112 33//112 74//112
f 79//113 31//113 33//113
f 78//114 31//114 79//114
f 78//115 29//115 31//115
f 80//116 29//116 78//116
f 80//117 27//117 29//117
f 81//118 27//118 80//118
f 81//119 25//119 27//119
f 82//120 25//120 81//120
f 82//121 23//121 25//121
f 83//122 23//122 82//122
f 83//123 21//123 23//123
f 21//124 83//124 84//124
f 84//125 19//125 21//125
f 85//126 19//126 84//126
f 19//127 85//127 17//127
f 86//128 17//128 85//128
f 86//129 15//129 17//129
f 87//130 15//130 86//130
f 87//131 13//131 15//131
f 88//132 13//132 87//132
f 88//133 11//133 13//133
f 11//134 88//134 89//134
f 11//135 89//135 9//135
f 9//136 89//136 92//136
f 9//137 92//137 7//137
f 7//138 92//138 90//138
f 7//139 90//139 5//139
f 5//140 90//140 91//140
f 5//141 91//141 2//141
f 95//142 2//142 91//142
f 95//143 3//143 2//143
f 3//144 95//144 93//144
f 93//145 71//145 3//145
f 71//146 93//146 94//146
f 71//147 94//147 69//147
f 69//148 94//148 98//148
f 69//149 98//149 67//149
f 67//150 98//150 96//150
f 67//151 96//151 65//151
f 65//152 96//152 97//152
f 65//153 97//153 63//153
f 63//154 97//154 100//154
f 63//155 100//155 61//155
f 61//156 100//156 99//156
f 61//157 99//157 59//157
f 59//158 99//158 101//158
f 59//159 101//159 57//159
f 103//160 57//160 101//160
f 103//161 55//161 57//161
f 55//162 103//162 102//162
f 102//163 53//163 55//163
f 53//164 102//164 104//164
f 53//165 104//165 51//165
f 51//166 104//166 106//166
f 51//167 106//167 49//167
f 49//168 106//168 105//168
f 49//169 105//169 47//169
f 107//170 47//170 105//170
f 107//171 45//171 47//171
f 109//172 45//172 107//172
f 109//173 43//173 45//173
f 108//174 43//174 109//174
f 108//175 41//175 43//175
f 77//176 41//176 108//176
f 77//177 39//177 41//177
f 39//178 77//178 76//178
f 76//179 37//179 39//179
f 73//180 37//180 76//180
f 72//181 110//181 1//181
f 111//182 1//182 110//182
f 112//183 113//183 114//183
f 112//184 110//184 113//184
f 112//185 111//185 110//185
f 112//186 115//186 116//186
f 112//187 117//187 115//187
f 112//188 114//188 117//188
f 118//189 112//189 119//189
f 119//190 112//190 120//190
f 112//191 116//191 120//191
f 121//192 112//192 118//192
f 122//193 112//193 123//193
f 123//194 112//194 121//194
f 124//195 112//195 122//195
f 125//196 112//196 126//196
f 126//197 112//197 124//197
f 127//198 112//198 125//198
f 128//199 112//199 129//199
f 129//200 112//200 127//200
f 130//201 112//201 128//201
f 131//202 112//202 132//202
f 132//203 112//203 130//203
f 112//204 133//204 111//204
f 134//205 135//205 112//205
f 112//206 135//206 133//206
f 136//207 137//207 112//207
f 137//208 138//208 112//208
f 138//209 134//209 112//209
f 139//210 140//210 112//210
f 140//211 141//211 112//211
f 141//212 136//212 112//212
f 142//213 143//213 112//213
f 143//214 144//214 112//214
f 144//215 139//215 112//215
f 145//216 112//216 131//216
f 142//217 112//217 146//217
f 146//218 112//218 145//218
f 111//219 4//219 1//219
f 133//220 4//220 111//220
f 133//221 6//221 4//221
f 135//222 6//222 133//222
f 135//223 8//223 6//223
f 134//224 8//224 135//224
f 134//225 10//225 8//225
f 10//226 134//226 138//226
f 10//227 138//227 12//227
f 12//228 138//228 137//228
f 12//229 137//229 14//229
f 14//230 137//230 136//230
f 14//231 136//231 16//231
f 141//232 16//232 136//232
f 16//233 141//233 18//233
f 18//234 141//234 140//234
f 140//235 20//235 18//235
f 20//236 140//236 139//236
f 20//237 139//237 22//237
f 22//238 139//238 144//238
f 22//239 144//239 24//239
f 24//240 144//240 143//240
f 24//241 143//241 26//241
f 26//242 143//242 142//242
f 26//243 142//243 28//243
f 28//244 142//244 146//244
f 28//245 146//245 30//245
f 30//246 146//246 145//246
f 30//247 145//247 32//247
f 32//248 145//248 131//248
f 32//249 131//249 34//249
f 132//250 34//250 131//250
f 34//251 132//251 36//251
f 36//252 132//252 130//252
f 130//253 38//253 36//253
f 38//254 130//254 128//254
f 38//255 128//255 40//255
f 40//256 128//256 129//256
f 40//257 129//257 42//257
f 42//258 129//258 127//258
f 42//259 127//259 44//259
f 44//260 127//260 125//260
f 44//261 125//261 46//261
f 126//262 46//262 125//262
f 126//263 48//263 46//263
f 124//264 48//264 126//264
f 124//265 50//265 48//265
f 122//266 50//266 124//266
f 122//267 52//267 50//267
f 52//268 122//268 123//268
f 52//269 123//269 54//269
f 121//270 54//270 123//270
f 54//271 121//271 56//271
f 118//272 56//272 121//272
f 118//273 58//273 56//273
f 119//274 58//274 118//274
f 119//275 60//275 58//275
f 120//276 60//276 119//276
f 120//277 62//277 60//277
f 116//278 62//278 120//278
f 116//279 64//279 62//279
f 115//280 64//280 116//280
f 115//281 66//281 64//281
f 117//282 66//282 115//282
f 117//283 68//283 66//283
f 114//284 68//284 117//284
f 114//285 70//285 68//285
f 70//286 114//286 113//286
f 113//287 72//287 70//287
f 110//288 72//288 113//288
