# Created by FreeCAD <http://www.freecadweb.org>
v 5.961690 1317.635864 1198.032104
v -2.486327 1316.583130 1203.278320
v -0.813580 1316.188843 1205.243408
v 1.320890 1315.893066 1206.716919
v -3.583356 1317.049194 1200.955811
v -4.029905 1317.555176 1198.434082
v -3.795544 1318.066772 1195.884888
v -2.896244 1318.548950 1193.482056
v -1.393290 1318.968872 1191.389282
v 0.610893 1319.297974 1189.749268
v 2.979725 1319.513794 1188.673584
v 8.151756 1319.555542 1188.465576
v 10.602489 1319.378662 1189.347290
v 5.551773 1319.601685 1188.235840
v 14.409707 1318.688599 1192.785889
v 15.506736 1318.222534 1195.108398
v 12.736959 1319.082886 1190.820923
v 14.819623 1316.722778 1202.582275
v 15.718924 1317.204956 1200.179443
v 15.953284 1317.716553 1197.630249
v 11.312486 1315.973755 1206.315063
v 13.316669 1316.302856 1204.674927
v 8.943654 1315.757935 1207.390625
v 3.771624 1315.716187 1207.598633
v 6.371606 1315.670044 1207.828369
v 3.771623 825.488953 1109.225220
v 1.320890 825.665894 1108.343506
v 6.371606 825.442871 1109.455078
v 8.943654 825.530701 1109.017212
v 11.312486 825.746582 1107.941650
v 13.316669 826.075684 1106.301514
v 14.819623 826.495605 1104.208862
v 15.718924 826.977783 1101.806030
v 15.953284 827.489319 1099.256836
v 15.506735 827.995361 1096.734985
v 14.409706 828.461426 1094.412476
v 12.736959 828.855774 1092.447510
v 10.602489 829.151428 1090.973877
v 8.151755 829.328369 1090.092163
v 5.551773 829.374512 1089.862427
v 2.979725 829.286621 1090.300293
v 0.610893 829.070801 1091.375854
v -1.393290 828.741699 1093.015869
v -2.896244 828.321777 1095.108643
v -3.795545 827.839600 1097.511475
v -4.029905 827.328064 1100.060669
v -3.583356 826.822021 1102.582397
v -2.486327 826.355957 1104.904907
v -0.813580 825.961609 1106.869995
v 2.713130 757.556946 1091.965820
v 4.428643 757.433105 1092.583008
v 5.961689 758.776855 1085.886475
v 0.048078 758.039978 1089.558838
v 1.219001 757.763916 1090.934326
v 8.049065 757.462341 1092.437378
v 9.707247 757.613403 1091.684448
v 6.248631 757.400818 1092.743896
v 12.162243 758.137756 1089.071533
v 12.791754 758.475281 1087.389526
v 11.110175 757.843750 1090.536499
v 12.643221 759.187561 1083.839844
v 11.875301 759.513794 1082.214111
v 12.955806 758.833313 1085.605103
v 9.210249 759.996826 1079.807129
v 7.494736 760.120667 1079.189941
v 10.704378 759.789856 1080.838623
v 5.674748 760.152954 1079.029053
v 3.874314 760.091431 1079.335571
v 2.216132 759.940369 1080.088379
v 0.813204 759.709961 1081.236450
v -0.238864 759.416016 1082.701416
v -0.868374 759.078491 1084.383423
v -0.719842 758.366211 1087.932983
v -1.032427 758.720398 1086.167725
vn -0.000008 0.980457 0.196731
vn 0.000028 0.980451 0.196764
vn 0.000003 0.980454 0.196749
vn -0.000003 0.980458 0.196728
vn -0.000002 0.980450 0.196766
vn 0.000002 0.980454 0.196749
vn 0.000008 0.980456 0.196738
vn -0.000000 0.980454 0.196747
vn 0.000012 0.980456 0.196740
vn -0.000019 0.980456 0.196740
vn -0.000018 0.980454 0.196749
vn 0.000016 0.980454 0.196747
vn 0.000003 0.980454 0.196749
vn -0.000003 0.980456 0.196739
vn 0.000020 0.980452 0.196760
vn 0.000000 0.980454 0.196748
vn -0.000004 0.980451 0.196766
vn -0.000006 0.980460 0.196719
vn 0.000006 0.980456 0.196740
vn 0.000002 0.980455 0.196744
vn 0.000003 0.980455 0.196742
vn 0.000016 0.980454 0.196747
vn -0.000018 0.980454 0.196749
vn -0.000019 0.980456 0.196740
vn -0.344484 -0.184704 0.920443
vn -0.344487 -0.184704 0.920442
vn -0.575716 -0.160870 0.801668
vn -0.089802 -0.195952 0.976493
vn -0.089762 -0.195952 0.976497
vn 0.171072 -0.193846 0.966001
vn 0.171033 -0.193848 0.966008
vn 0.420228 -0.178532 0.889682
vn 0.420224 -0.178532 0.889684
vn 0.640789 -0.151046 0.752711
vn 0.640789 -0.151046 0.752712
vn 0.817627 -0.113277 0.564494
vn 0.817628 -0.113276 0.564494
vn 0.938790 -0.067777 0.337757
vn 0.938790 -0.067777 0.337757
vn 0.995962 -0.017663 0.088020
vn 0.995962 -0.017663 0.088019
vn 0.985262 0.033654 -0.167710
vn 0.985262 0.033654 -0.167710
vn 0.907415 0.082680 -0.412022
vn 0.907415 0.082680 -0.412022
vn 0.767727 0.126071 -0.628253
vn 0.767724 0.126071 -0.628256
vn 0.575741 0.160867 -0.801651
vn 0.575747 0.160866 -0.801647
vn 0.344489 0.184704 -0.920441
vn 0.344484 0.184704 -0.920443
vn 0.089760 0.195953 -0.976497
vn 0.089762 0.195953 -0.976497
vn -0.171076 0.193846 -0.966000
vn -0.171030 0.193848 -0.966008
vn -0.420224 0.178532 -0.889684
vn -0.420261 0.178529 -0.889667
vn -0.640762 0.151050 -0.752734
vn -0.640763 0.151050 -0.752733
vn -0.817643 0.113272 -0.564473
vn -0.817642 0.113272 -0.564474
vn -0.938790 0.067777 -0.337757
vn -0.938790 0.067777 -0.337757
vn -0.995962 0.017663 -0.088020
vn -0.995962 0.017663 -0.088019
vn -0.985261 -0.033656 0.167717
vn -0.985260 -0.033656 0.167718
vn -0.907415 -0.082680 0.412022
vn -0.907415 -0.082680 0.412022
vn -0.767745 -0.126067 0.628231
vn -0.767743 -0.126067 0.628233
vn -0.575713 -0.160870 0.801671
vn -0.575194 -0.202348 0.792595
vn -0.344170 -0.226160 0.911262
vn 0.000004 -0.980456 -0.196741
vn -0.000018 -0.980451 -0.196762
vn 0.000007 -0.980456 -0.196739
vn -0.000011 -0.980456 -0.196736
vn 0.000009 -0.980455 -0.196742
vn -0.000002 -0.980455 -0.196742
vn 0.000005 -0.980455 -0.196744
vn -0.000003 -0.980455 -0.196741
vn 0.000013 -0.980452 -0.196759
vn 0.000001 -0.980454 -0.196747
vn 0.000000 -0.980459 -0.196722
vn -0.000001 -0.980453 -0.196755
vn 0.000007 -0.980454 -0.196749
vn -0.000012 -0.980450 -0.196767
vn 0.000012 -0.980454 -0.196746
vn -0.000001 -0.980454 -0.196750
vn 0.000007 -0.980454 -0.196751
vn -0.000002 -0.980454 -0.196748
vn 0.000010 -0.980453 -0.196756
vn -0.000009 -0.980457 -0.196735
vn -0.000003 -0.980454 -0.196747
vn 0.000001 -0.980457 -0.196732
vn 0.000002 -0.980450 -0.196767
vn 0.000004 -0.980459 -0.196723
vn -0.344177 -0.226160 0.911259
vn -0.089719 -0.237398 0.967260
vn -0.089721 -0.237398 0.967260
vn 0.170929 -0.235294 0.956776
vn 0.170917 -0.235295 0.956778
vn 0.419860 -0.219992 0.880523
vn 0.419850 -0.219994 0.880528
vn 0.640163 -0.192541 0.743720
vn 0.640211 -0.192531 0.743681
vn 0.816913 -0.154790 0.555602
vn 0.816890 -0.154797 0.555633
vn 0.937945 -0.109338 0.329096
vn 0.937944 -0.109339 0.329100
vn 0.995064 -0.059270 0.079590
vn 0.995064 -0.059269 0.079588
vn 0.984373 -0.007998 -0.175914
vn 0.984374 -0.007999 -0.175910
vn 0.906594 0.040984 -0.420008
vn 0.906597 0.040983 -0.420003
vn 0.767037 0.084334 -0.636036
vn 0.767034 0.084335 -0.636040
vn 0.575205 0.119101 -0.809292
vn 0.575222 0.119098 -0.809281
vn 0.344170 0.142915 -0.927967
vn 0.344177 0.142914 -0.927964
vn 0.089718 0.154151 -0.983965
vn 0.089680 0.154153 -0.983969
vn -0.170928 0.152049 -0.973481
vn -0.170921 0.152049 -0.973482
vn -0.419807 0.136752 -0.897252
vn -0.419846 0.136750 -0.897234
vn -0.640206 0.109289 -0.760390
vn -0.640185 0.109292 -0.760407
vn -0.816910 0.071546 -0.572310
vn -0.816906 0.071547 -0.572316
vn -0.937945 0.026093 -0.345801
vn -0.937944 0.026094 -0.345805
vn -0.995064 -0.023974 -0.096300
vn -0.995064 -0.023975 -0.096292
vn -0.984373 -0.075247 0.159211
vn -0.984372 -0.075248 0.159213
vn -0.906605 -0.124225 0.403280
vn -0.906597 -0.124228 0.403298
vn -0.767038 -0.167578 0.619330
vn -0.767053 -0.167575 0.619312
vn -0.575204 -0.202347 0.792588
f 1//1 2//1 3//1
f 1//2 3//2 4//2
f 1//3 5//3 2//3
f 1//4 6//4 5//4
f 7//5 6//5 1//5
f 8//6 7//6 1//6
f 9//7 8//7 1//7
f 10//8 9//8 1//8
f 11//9 10//9 1//9
f 12//10 1//10 13//10
f 14//11 11//11 1//11
f 14//12 1//12 12//12
f 15//13 1//13 16//13
f 17//14 1//14 15//14
f 13//15 1//15 17//15
f 1//16 18//16 19//16
f 20//17 1//17 19//17
f 16//18 1//18 20//18
f 1//19 21//19 22//19
f 1//20 22//20 18//20
f 1//21 23//21 21//21
f 1//22 24//22 25//22
f 1//23 25//23 23//23
f 1//24 4//24 24//24
f 24//25 4//25 26//25
f 4//26 27//26 26//26
f 4//27 3//27 27//27
f 24//28 26//28 28//28
f 25//29 24//29 28//29
f 28//30 29//30 25//30
f 29//31 23//31 25//31
f 29//32 30//32 23//32
f 30//33 21//33 23//33
f 30//34 31//34 21//34
f 31//35 22//35 21//35
f 31//36 32//36 22//36
f 32//37 18//37 22//37
f 32//38 33//38 18//38
f 33//39 19//39 18//39
f 33//40 34//40 19//40
f 34//41 20//41 19//41
f 20//42 34//42 35//42
f 16//43 20//43 35//43
f 16//44 35//44 36//44
f 15//45 16//45 36//45
f 15//46 36//46 37//46
f 17//47 15//47 37//47
f 17//48 37//48 38//48
f 13//49 17//49 38//49
f 13//50 38//50 39//50
f 12//51 13//51 39//51
f 12//52 39//52 40//52
f 14//53 12//53 40//53
f 40//54 41//54 14//54
f 41//55 11//55 14//55
f 41//56 42//56 11//56
f 42//57 10//57 11//57
f 42//58 43//58 10//58
f 43//59 9//59 10//59
f 43//60 44//60 9//60
f 44//61 8//61 9//61
f 44//62 45//62 8//62
f 45//63 7//63 8//63
f 45//64 46//64 7//64
f 46//65 6//65 7//65
f 6//66 46//66 47//66
f 5//67 6//67 47//67
f 5//68 47//68 48//68
f 2//69 5//69 48//69
f 2//70 48//70 49//70
f 3//71 2//71 49//71
f 3//72 49//72 27//72
f 27//73 49//73 50//73
f 27//74 50//74 51//74
f 50//75 52//75 51//75
f 53//76 52//76 54//76
f 54//77 52//77 50//77
f 55//78 52//78 56//78
f 55//79 57//79 52//79
f 57//80 51//80 52//80
f 58//81 52//81 59//81
f 56//82 52//82 60//82
f 60//83 52//83 58//83
f 61//84 52//84 62//84
f 59//85 52//85 63//85
f 63//86 52//86 61//86
f 64//87 52//87 65//87
f 62//88 52//88 66//88
f 66//89 52//89 64//89
f 65//90 52//90 67//90
f 52//91 68//91 67//91
f 52//92 69//92 68//92
f 52//93 70//93 69//93
f 52//94 71//94 70//94
f 52//95 72//95 71//95
f 53//96 73//96 52//96
f 52//97 74//97 72//97
f 73//98 74//98 52//98
f 26//99 27//99 51//99
f 26//100 51//100 57//100
f 28//101 26//101 57//101
f 57//102 55//102 28//102
f 55//103 29//103 28//103
f 55//104 56//104 29//104
f 56//105 30//105 29//105
f 56//106 60//106 30//106
f 60//107 31//107 30//107
f 60//108 58//108 31//108
f 58//109 32//109 31//109
f 58//110 59//110 32//110
f 59//111 33//111 32//111
f 59//112 63//112 33//112
f 63//113 34//113 33//113
f 34//114 63//114 61//114
f 35//115 34//115 61//115
f 35//116 61//116 62//116
f 36//117 35//117 62//117
f 36//118 62//118 66//118
f 37//119 36//119 66//119
f 37//120 66//120 64//120
f 38//121 37//121 64//121
f 38//122 64//122 65//122
f 39//123 38//123 65//123
f 39//124 65//124 67//124
f 40//125 39//125 67//125
f 67//126 68//126 40//126
f 68//127 41//127 40//127
f 68//128 69//128 41//128
f 69//129 42//129 41//129
f 69//130 70//130 42//130
f 70//131 43//131 42//131
f 70//132 71//132 43//132
f 71//133 44//133 43//133
f 71//134 72//134 44//134
f 72//135 45//135 44//135
f 72//136 74//136 45//136
f 74//137 46//137 45//137
f 46//138 74//138 73//138
f 47//139 46//139 73//139
f 47//140 73//140 53//140
f 48//141 47//141 53//141
f 48//142 53//142 54//142
f 49//143 48//143 54//143
f 49//144 54//144 50//144
