# Created by FreeCAD <http://www.freecadweb.org>
v -897.300110 750.183228 794.176208
v -850.918335 794.311401 797.737427
v -848.958557 792.112915 795.173889
v -899.259888 752.381653 796.739746
v -850.020142 793.369141 793.814331
v -898.361694 751.439453 792.816650
v -850.908691 794.432190 792.191467
v -899.250183 752.502502 791.193787
v -851.597534 795.270142 790.353882
v -899.939087 753.340393 789.356201
v -852.066040 795.857788 788.356750
v -900.407593 753.928101 787.359070
v -852.300171 796.177612 786.260010
v -900.641724 754.247864 785.262329
v -852.292847 796.219910 784.126526
v -900.634399 754.290222 783.128845
v -852.044312 795.983521 782.020447
v -900.385864 754.053772 781.022766
v -851.562012 795.475403 780.004822
v -899.903564 753.545715 779.007141
v -850.860474 794.710938 778.140198
v -899.202026 752.781250 777.142517
v -849.960693 793.713013 776.482544
v -898.302185 751.783264 775.484863
v -848.889648 792.511536 775.081543
v -897.231201 750.581787 774.083862
v -847.679504 791.142578 773.979309
v -896.021057 749.212830 772.981628
v -846.366577 789.647217 773.208801
v -894.708130 747.717529 772.211121
v -844.990295 788.070374 772.793274
v -893.331848 746.140625 771.795593
v -843.591919 786.459290 772.745117
v -891.933472 744.529541 771.747437
v -842.213379 784.862305 773.065735
v -890.554932 742.932617 772.068054
v -840.896118 783.327393 773.745605
v -889.237671 741.397705 772.747925
v -839.679565 781.900635 774.764282
v -888.021118 739.970886 773.766602
v -838.600281 780.624695 776.091187
v -886.941833 738.695007 775.093506
v -837.690674 779.538025 777.686523
v -886.032227 737.608337 776.688843
v -836.977966 778.673157 779.502380
v -885.319519 736.743469 778.504700
v -835.018250 776.474731 776.938904
v -883.359741 734.544983 775.941223
v -852.046631 795.650024 796.147095
v -900.388184 753.720337 795.149414
v -853.007385 796.801270 794.317993
v -901.348938 754.871521 793.320312
v -853.779968 797.740234 792.289246
v -902.121521 755.810486 791.291565
v -854.347717 798.446777 790.104614
v -902.689270 756.517090 789.106934
v -854.698486 798.905762 787.811096
v -903.040039 756.976013 786.813416
v -854.824646 799.107239 785.457886
v -903.166199 757.177551 784.460205
v -854.723633 799.046936 783.095581
v -903.065125 757.117188 782.097900
v -854.397461 798.726074 780.775085
v -902.738953 756.796387 779.777405
v -853.853210 798.151672 778.546204
v -902.194702 756.221924 777.548523
v -853.102600 797.335999 776.456848
v -901.444092 755.406250 775.459167
v -852.161743 796.296570 774.551941
v -900.503235 754.366821 773.554260
v -851.050842 795.055786 772.872498
v -899.392395 753.126038 771.874817
v -849.793823 793.640259 771.454590
v -898.135376 751.710571 770.456909
v -848.417725 792.080505 770.328674
v -896.759277 750.150818 769.330994
v -846.952087 790.410034 769.519043
v -895.293640 748.480347 768.521362
v -845.428467 788.664734 769.042969
v -893.770020 746.735046 768.045288
v -843.879578 786.882141 768.910767
v -892.221130 744.952454 767.913086
v -842.338745 785.100586 769.125366
v -890.680298 743.170898 768.127686
v -840.839111 783.358337 769.681946
v -889.180603 741.428650 768.684265
v -839.412842 781.692932 770.568726
v -887.754395 739.763245 769.571045
v -838.090698 780.140076 771.766541
v -886.432251 738.210388 770.768860
v -836.901062 778.733276 773.249695
v -885.242615 736.803528 772.252014
v -835.869507 777.502625 774.986267
v -884.211060 735.572937 773.988586
vn -0.421359 0.503737 -0.754126
vn -0.421364 0.503741 -0.754120
vn -0.426593 0.473491 0.770600
vn -0.426593 0.473491 0.770600
vn -0.506032 0.567970 0.649109
vn -0.506039 0.567976 0.649098
vn -0.570307 0.645428 0.508107
vn -0.570308 0.645429 0.508105
vn -0.617465 0.703515 0.351857
vn -0.617461 0.703510 0.351876
vn -0.646086 0.740481 0.185093
vn -0.646089 0.740484 0.185072
vn -0.655328 0.755237 0.012723
vn -0.655328 0.755237 0.012745
vn -0.644905 0.747330 -0.159986
vn -0.644903 0.747327 -0.160007
vn -0.615126 0.716993 -0.327934
vn -0.615130 0.716998 -0.327915
vn -0.566902 0.665157 -0.485992
vn -0.566902 0.665157 -0.485992
vn -0.501658 0.593350 -0.629504
vn -0.501645 0.593334 -0.629529
vn -0.421362 0.503738 -0.754123
vn -0.421367 0.503745 -0.754115
vn -0.328412 0.399003 -0.856120
vn -0.328412 0.399003 -0.856120
vn -0.225637 0.282327 -0.932405
vn -0.225642 0.282333 -0.932402
vn -0.116060 0.157143 -0.980733
vn -0.116057 0.157140 -0.980733
vn -0.003016 0.027262 -0.999624
vn -0.003016 0.027262 -0.999624
vn 0.110103 -0.103418 -0.988525
vn 0.110105 -0.103421 -0.988525
vn 0.219952 -0.231035 -0.947757
vn 0.219952 -0.231035 -0.947757
vn 0.323184 -0.351701 -0.878555
vn 0.323179 -0.351694 -0.878559
vn 0.416707 -0.461798 -0.783005
vn 0.416714 -0.461807 -0.782997
vn 0.497750 -0.558068 -0.663931
vn 0.497750 -0.558068 -0.663931
vn 0.563839 -0.637570 -0.524967
vn 0.563839 -0.637570 -0.524967
vn -0.421354 0.503730 -0.754133
vn -0.421361 0.503739 -0.754124
vn 0.449341 -0.500445 -0.740032
vn 0.449335 -0.500438 -0.740041
vn 0.514249 -0.577807 -0.633789
vn 0.514255 -0.577814 -0.633777
vn 0.568135 -0.642786 -0.513857
vn 0.568135 -0.642786 -0.513857
vn 0.609793 -0.693930 -0.382902
vn 0.609788 -0.693925 -0.382919
vn 0.638335 -0.730149 -0.243746
vn 0.638338 -0.730152 -0.243727
vn 0.653162 -0.750680 -0.099289
vn 0.653161 -0.750679 -0.099308
vn 0.653943 -0.755068 0.047238
vn 0.653943 -0.755066 0.047274
vn 0.640662 -0.743218 0.192819
vn 0.640664 -0.743221 0.192800
vn 0.613612 -0.715397 0.334196
vn 0.613609 -0.715392 0.334214
vn 0.573370 -0.672193 0.468406
vn 0.573370 -0.672193 0.468406
vn 0.520796 -0.614534 0.592553
vn 0.520796 -0.614534 0.592553
vn 0.457022 -0.543658 0.703965
vn 0.457027 -0.543665 0.703956
vn 0.383422 -0.461095 0.800237
vn 0.383428 -0.461103 0.800230
vn 0.301594 -0.368636 0.879289
vn 0.301594 -0.368636 0.879289
vn 0.213257 -0.268222 0.939457
vn 0.213257 -0.268222 0.939457
vn 0.120368 -0.162079 0.979409
vn 0.120368 -0.162079 0.979409
vn 0.024871 -0.052428 0.998315
vn 0.024871 -0.052428 0.998315
vn -0.071185 0.058378 0.995753
vn -0.071185 0.058378 0.995753
vn -0.165654 0.167863 0.971793
vn -0.165652 0.167860 0.971793
vn -0.256611 0.273796 0.926923
vn -0.256614 0.273801 0.926921
vn -0.342024 0.373813 0.862139
vn -0.342024 0.373813 0.862139
vn -0.420104 0.465815 0.778799
vn -0.420098 0.465808 0.778807
vn -0.489130 0.547777 0.678743
vn -0.489136 0.547784 0.678733
vn -0.547656 0.617982 0.564066
vn -0.547646 0.617968 0.564091
vn 0.755344 0.655144 0.015575
vn 0.755336 0.655152 0.015597
vn 0.755333 0.655155 0.015599
vn 0.755325 0.655165 0.015598
vn 0.755340 0.655148 0.015590
vn 0.755331 0.655158 0.015587
vn 0.755347 0.655140 0.015587
vn 0.755339 0.655149 0.015584
vn 0.755326 0.655164 0.015596
vn 0.755340 0.655148 0.015593
vn 0.755336 0.655153 0.015591
vn 0.755334 0.655155 0.015580
vn 0.755337 0.655151 0.015591
vn 0.755335 0.655154 0.015588
vn 0.755335 0.655153 0.015580
vn 0.755333 0.655156 0.015586
vn 0.755341 0.655147 0.015588
vn 0.755333 0.655156 0.015595
vn 0.755341 0.655147 0.015595
vn 0.755343 0.655144 0.015597
vn 0.755335 0.655153 0.015597
vn 0.755333 0.655156 0.015587
vn 0.755336 0.655153 0.015587
vn 0.755331 0.655158 0.015571
vn 0.755342 0.655144 0.015614
vn 0.755345 0.655142 0.015600
vn 0.755340 0.655148 0.015577
vn 0.755338 0.655150 0.015582
vn 0.755341 0.655146 0.015600
vn 0.755341 0.655146 0.015603
vn 0.755339 0.655149 0.015584
vn 0.755341 0.655147 0.015587
vn 0.755337 0.655151 0.015590
vn 0.755334 0.655155 0.015592
vn 0.755341 0.655147 0.015586
vn 0.755339 0.655149 0.015578
vn 0.755339 0.655149 0.015589
vn 0.755328 0.655162 0.015584
vn 0.755329 0.655160 0.015595
vn 0.755326 0.655164 0.015588
vn 0.755347 0.655139 0.015607
vn 0.755339 0.655149 0.015604
vn 0.755326 0.655164 0.015569
vn 0.755339 0.655149 0.015600
vn 0.755331 0.655159 0.015575
f 1//1 2//1 3//1
f 4//2 2//2 1//2
f 3//3 5//3 1//3
f 1//4 5//4 6//4
f 5//5 7//5 6//5
f 6//6 7//6 8//6
f 7//7 9//7 8//7
f 8//8 9//8 10//8
f 9//9 11//9 10//9
f 10//10 11//10 12//10
f 11//11 13//11 12//11
f 12//12 13//12 14//12
f 13//13 15//13 14//13
f 14//14 15//14 16//14
f 17//15 16//15 15//15
f 18//16 16//16 17//16
f 19//17 18//17 17//17
f 20//18 18//18 19//18
f 21//19 20//19 19//19
f 22//20 20//20 21//20
f 23//21 22//21 21//21
f 24//22 22//22 23//22
f 25//23 24//23 23//23
f 26//24 24//24 25//24
f 27//25 26//25 25//25
f 28//26 26//26 27//26
f 29//27 28//27 27//27
f 30//28 28//28 29//28
f 31//29 30//29 29//29
f 32//30 30//30 31//30
f 33//31 32//31 31//31
f 34//32 32//32 33//32
f 33//33 35//33 34//33
f 34//34 35//34 36//34
f 35//35 37//35 36//35
f 36//36 37//36 38//36
f 37//37 39//37 38//37
f 38//38 39//38 40//38
f 39//39 41//39 40//39
f 40//40 41//40 42//40
f 41//41 43//41 42//41
f 42//42 43//42 44//42
f 43//43 45//43 44//43
f 44//44 45//44 46//44
f 46//45 47//45 48//45
f 46//46 45//46 47//46
f 49//47 2//47 4//47
f 50//48 49//48 4//48
f 51//49 49//49 50//49
f 52//50 51//50 50//50
f 53//51 51//51 52//51
f 54//52 53//52 52//52
f 55//53 53//53 54//53
f 56//54 55//54 54//54
f 57//55 55//55 56//55
f 58//56 57//56 56//56
f 59//57 57//57 58//57
f 60//58 59//58 58//58
f 61//59 59//59 60//59
f 62//60 61//60 60//60
f 61//61 62//61 63//61
f 62//62 64//62 63//62
f 63//63 64//63 65//63
f 64//64 66//64 65//64
f 65//65 66//65 67//65
f 66//66 68//66 67//66
f 67//67 68//67 69//67
f 68//68 70//68 69//68
f 69//69 70//69 71//69
f 70//70 72//70 71//70
f 71//71 72//71 73//71
f 72//72 74//72 73//72
f 73//73 74//73 75//73
f 74//74 76//74 75//74
f 75//75 76//75 77//75
f 76//76 78//76 77//76
f 77//77 78//77 79//77
f 78//78 80//78 79//78
f 79//79 80//79 81//79
f 80//80 82//80 81//80
f 83//81 81//81 82//81
f 84//82 83//82 82//82
f 85//83 83//83 84//83
f 86//84 85//84 84//84
f 87//85 85//85 86//85
f 88//86 87//86 86//86
f 89//87 87//87 88//87
f 90//88 89//88 88//88
f 91//89 89//89 90//89
f 92//90 91//90 90//90
f 93//91 91//91 92//91
f 94//92 93//92 92//92
f 47//93 93//93 94//93
f 48//94 47//94 94//94
f 26//95 72//95 24//95
f 28//96 74//96 26//96
f 26//97 74//97 72//97
f 30//98 76//98 28//98
f 28//99 76//99 74//99
f 30//100 78//100 76//100
f 32//101 80//101 30//101
f 30//102 80//102 78//102
f 36//103 82//103 34//103
f 34//104 82//104 32//104
f 32//105 82//105 80//105
f 46//106 48//106 44//106
f 44//107 94//107 42//107
f 48//108 94//108 44//108
f 94//109 92//109 42//109
f 42//110 90//110 40//110
f 92//111 90//111 42//111
f 40//112 88//112 38//112
f 90//113 88//113 40//113
f 38//114 86//114 36//114
f 88//115 86//115 38//115
f 86//116 84//116 36//116
f 84//117 82//117 36//117
f 12//118 14//118 58//118
f 14//119 60//119 58//119
f 14//120 16//120 60//120
f 16//121 62//121 60//121
f 16//122 18//122 62//122
f 18//123 64//123 62//123
f 18//124 20//124 64//124
f 20//125 66//125 64//125
f 22//126 68//126 20//126
f 20//127 68//127 66//127
f 24//128 70//128 22//128
f 22//129 70//129 68//129
f 24//130 72//130 70//130
f 4//131 6//131 50//131
f 1//132 6//132 4//132
f 50//133 8//133 52//133
f 52//134 8//134 54//134
f 6//135 8//135 50//135
f 54//136 10//136 56//136
f 8//137 10//137 54//137
f 10//138 12//138 56//138
f 12//139 58//139 56//139
