# Created by FreeCAD <http://www.freecadweb.org>
v -702.901062 507.169647 1010.617004
v -641.718750 560.236938 1011.879700
v -640.204163 558.520752 1010.615906
v -704.253479 508.689850 1012.259033
v -643.071228 561.757141 1013.521729
v -705.402710 509.967926 1014.229370
v -644.220459 563.035217 1015.492065
v -706.313843 510.965057 1016.468201
v -645.131531 564.032349 1017.730896
v -706.959045 511.650940 1018.907410
v -645.776794 564.718201 1020.170105
v -707.318848 512.004700 1021.472961
v -646.136597 565.071960 1022.735596
v -707.382263 512.015625 1024.086792
v -646.200012 565.082886 1025.349487
v -707.147339 511.683350 1026.669678
v -645.965088 564.750610 1027.932373
v -706.621277 511.017975 1029.142944
v -645.439026 564.085266 1030.405640
v -705.820068 510.039764 1031.431519
v -644.637817 563.107056 1032.694214
v -704.767944 508.778381 1033.465820
v -643.585693 561.845703 1034.728516
v -703.497009 507.272186 1035.184082
v -642.314758 560.339478 1036.446777
v -702.045837 505.566956 1036.534180
v -640.863525 558.634216 1037.796875
v -700.458435 503.714478 1037.474976
v -639.276184 556.781738 1038.737671
v -698.783142 501.771027 1037.977905
v -637.600891 554.838318 1039.240601
v -697.070862 499.795685 1038.027710
v -635.888550 552.862976 1039.290405
v -695.373535 497.848450 1037.622803
v -634.191284 550.915710 1038.885498
v -693.742798 495.988495 1036.775635
v -632.560547 549.055786 1038.038330
v -692.228149 494.272339 1035.511841
v -631.045898 547.339600 1036.774536
v -690.875671 492.752106 1033.869751
v -629.693420 545.819397 1035.132446
v -689.726440 491.474030 1031.899414
v -628.544189 544.541321 1033.162109
v -688.815369 490.476898 1029.660645
v -627.633118 543.544189 1030.923340
v -688.170166 489.791046 1027.221436
v -626.987915 542.858337 1028.484131
v -687.810364 489.437286 1024.655884
v -626.628113 542.504578 1025.918579
v -687.746948 489.426361 1022.041992
v -626.564697 542.493652 1023.304688
v -687.981873 489.758636 1019.459167
v -626.799561 542.825928 1020.721863
v -688.507874 490.423981 1016.985901
v -627.325623 543.491272 1018.248596
v -689.309143 491.402222 1014.697327
v -628.126892 544.469482 1015.960022
v -690.361206 492.663574 1012.662964
v -629.178955 545.730896 1013.925659
v -691.632202 494.169769 1010.944641
v -630.449951 547.237061 1012.207336
v -693.083374 495.875000 1009.594604
v -631.901123 548.942322 1010.857300
v -694.670776 497.727509 1008.653809
v -633.488525 550.794800 1009.916504
v -696.346069 499.670929 1008.150879
v -635.163818 552.738220 1009.413574
v -698.058350 501.646301 1008.101135
v -636.876099 554.713562 1009.363831
v -699.755676 503.593536 1008.505981
v -638.573425 556.660828 1009.768677
v -701.386414 505.453461 1009.353210
v -632.972717 552.609070 1036.975586
v -634.443726 554.296631 1037.326416
v -634.871643 555.098572 1024.358276
v -631.559448 550.997070 1036.241333
v -630.246765 549.509766 1035.145996
v -637.379700 557.692932 1036.847412
v -635.927734 556.008606 1037.283325
v -638.755371 559.298401 1036.032104
v -640.013123 560.776306 1034.862061
v -641.114563 562.081665 1033.372803
v -642.026367 563.174866 1031.609741
v -642.720825 564.022644 1029.626343
v -643.176697 564.599304 1027.482788
v -643.380310 564.887268 1025.244385
v -643.325317 564.877808 1022.979004
v -643.013550 564.571167 1020.755554
v -642.454346 563.976807 1018.641541
v -640.668701 562.004944 1014.993652
v -639.496582 560.687378 1013.570557
v -641.664734 563.112610 1016.701294
v -636.770630 557.588135 1011.740967
v -635.299622 555.900513 1011.390076
v -638.183899 559.200073 1012.475220
v -632.363647 552.504211 1011.869080
v -630.987976 550.898743 1012.684448
v -633.815613 554.188538 1011.433228
v -628.628723 548.115479 1015.343689
v -629.730225 549.420837 1013.854492
v -627.716919 547.022278 1017.106812
v -626.566589 545.597839 1021.233765
v -627.022522 546.174500 1019.090271
v -626.363037 545.309875 1023.472168
v -626.729797 545.625977 1027.961060
v -626.417969 545.319336 1025.737549
v -627.289001 546.220398 1030.074951
v -629.074646 548.192200 1033.722900
v -628.078613 547.084534 1032.015259
v -703.700195 504.999512 1012.245483
v -704.872314 506.317047 1013.668579
v -699.075256 499.410675 1023.033203
v -702.387512 503.512177 1011.150208
v -700.974182 501.900208 1010.415955
v -698.019165 498.500641 1010.108215
v -696.567261 496.816315 1010.544067
v -699.503174 500.212616 1010.065063
v -692.832336 492.427582 1014.018677
v -693.933838 493.732971 1012.529480
v -695.191528 495.210846 1011.359436
v -691.920532 491.334412 1015.781738
v -690.770203 489.909973 1019.908691
v -691.226135 490.486603 1017.765198
v -690.566650 489.622009 1022.147156
v -690.933411 489.938049 1026.635986
v -690.621582 489.631470 1024.412476
v -691.492615 490.532471 1028.750000
v -693.278198 492.504333 1032.397827
v -692.282227 491.396637 1030.690186
v -694.450378 493.821838 1033.820923
v -697.176331 496.921143 1035.650513
v -695.763000 495.309174 1034.916260
v -705.868347 507.424713 1015.376221
v -707.217102 508.883301 1019.430481
v -706.657898 508.288879 1017.316528
v -707.380310 508.911377 1026.157715
v -707.583923 509.199341 1023.919312
v -707.528931 509.189880 1021.653931
v -705.318176 506.393768 1032.047852
v -706.229980 507.486938 1030.284668
v -706.924377 508.334747 1028.301270
v -701.583252 502.005035 1035.522339
v -702.958984 503.610535 1034.707031
v -704.216675 505.088409 1033.536987
v -698.647339 498.608734 1036.001465
v -700.131348 500.320709 1035.958252
vn -0.306435 0.374122 -0.875289
vn -0.402381 0.482426 -0.778045
vn -0.402377 0.482421 -0.778051
vn -0.486085 0.576053 -0.657179
vn -0.486085 0.576053 -0.657179
vn -0.555022 0.652181 -0.516345
vn -0.555026 0.652186 -0.516334
vn -0.607099 0.708497 -0.359809
vn -0.607098 0.708496 -0.359814
vn -0.640727 0.743284 -0.192348
vn -0.640727 0.743283 -0.192353
vn -0.654888 0.755486 -0.019046
vn -0.654888 0.755486 -0.019046
vn -0.649150 0.744732 0.154849
vn -0.649150 0.744732 0.154849
vn -0.623687 0.711350 0.324030
vn -0.623689 0.711352 0.324022
vn -0.579279 0.656360 0.483350
vn -0.579279 0.656360 0.483350
vn -0.517253 0.581407 0.628025
vn -0.517256 0.581410 0.628019
vn -0.439526 0.488807 0.753581
vn -0.439524 0.488804 0.753584
vn -0.348458 0.381370 0.856232
vn -0.348451 0.381362 0.856239
vn -0.246775 0.262314 0.932895
vn -0.246779 0.262319 0.932893
vn -0.137604 0.135300 0.981203
vn -0.137605 0.135301 0.981203
vn -0.024257 0.004179 0.999697
vn -0.024256 0.004179 0.999697
vn 0.089846 -0.127090 0.987814
vn 0.089847 -0.127090 0.987814
vn 0.201185 -0.254457 0.945926
vn 0.201187 -0.254459 0.945925
vn 0.306433 -0.374120 0.875290
vn 0.306431 -0.374117 0.875292
vn 0.402383 -0.482428 0.778043
vn 0.402386 -0.482431 0.778040
vn 0.486085 -0.576053 0.657179
vn 0.486085 -0.576053 0.657179
vn 0.555022 -0.652181 0.516344
vn 0.555022 -0.652181 0.516343
vn 0.607101 -0.708499 0.359801
vn 0.607101 -0.708499 0.359801
vn 0.640728 -0.743283 0.192348
vn 0.640728 -0.743283 0.192348
vn 0.654888 -0.755486 0.019046
vn 0.654888 -0.755486 0.019046
vn 0.649150 -0.744732 -0.154853
vn 0.649151 -0.744734 -0.154838
vn 0.623691 -0.711356 -0.324009
vn 0.623689 -0.711352 -0.324022
vn 0.579272 -0.656352 -0.483369
vn 0.579275 -0.656355 -0.483362
vn 0.517266 -0.581424 -0.627998
vn 0.517261 -0.581417 -0.628009
vn 0.439530 -0.488811 -0.753576
vn 0.439533 -0.488815 -0.753572
vn 0.348447 -0.381357 -0.856243
vn 0.348445 -0.381354 -0.856245
vn 0.246774 -0.262312 -0.932896
vn 0.246775 -0.262314 -0.932895
vn 0.137605 -0.135301 -0.981203
vn 0.137605 -0.135301 -0.981203
vn 0.024241 -0.004161 -0.999697
vn 0.024242 -0.004162 -0.999697
vn -0.089831 0.127073 -0.987817
vn -0.089831 0.127072 -0.987817
vn -0.201200 0.254475 -0.945918
vn -0.201200 0.254475 -0.945918
vn -0.306431 0.374117 -0.875292
vn 0.675605 0.282095 0.681161
vn 0.596702 0.372353 0.710844
vn 0.755352 0.655134 0.015582
vn 0.755329 0.655160 0.015597
vn 0.755328 0.655161 0.015591
vn 0.755328 0.655161 0.015588
vn 0.755338 0.655150 0.015590
vn 0.755342 0.655146 0.015594
vn 0.755333 0.655156 0.015587
vn 0.755343 0.655143 0.015599
vn 0.755339 0.655149 0.015591
vn 0.755330 0.655159 0.015572
vn 0.755340 0.655147 0.015609
vn 0.755335 0.655153 0.015575
vn 0.755336 0.655152 0.015600
vn 0.755340 0.655149 0.015559
vn 0.755331 0.655158 0.015603
vn 0.755346 0.655141 0.015575
vn 0.755330 0.655159 0.015599
vn 0.755336 0.655152 0.015587
vn 0.755340 0.655148 0.015586
vn 0.755341 0.655147 0.015585
vn 0.755328 0.655162 0.015594
vn 0.755342 0.655145 0.015591
vn 0.755329 0.655161 0.015585
vn 0.755338 0.655150 0.015586
vn 0.755335 0.655154 0.015585
vn 0.755334 0.655155 0.015584
vn 0.755338 0.655150 0.015591
vn 0.755338 0.655150 0.015590
vn 0.755337 0.655151 0.015588
vn 0.755338 0.655149 0.015595
vn 0.755338 0.655150 0.015579
vn 0.755338 0.655150 0.015580
vn 0.755336 0.655152 0.015588
vn 0.755332 0.655157 0.015601
vn 0.755331 0.655157 0.015602
vn 0.755348 0.655139 0.015578
vn 0.596757 0.372340 0.710806
vn 0.515929 0.465331 0.719225
vn 0.515894 0.465342 0.719243
vn 0.435583 0.558245 0.706138
vn 0.435600 0.558239 0.706132
vn 0.358269 0.648208 0.671915
vn 0.358250 0.648215 0.671918
vn 0.286224 0.732548 0.617616
vn 0.286208 0.732554 0.617616
vn 0.221676 0.808684 0.544876
vn 0.221716 0.808669 0.544883
vn 0.166645 0.874280 0.455921
vn 0.166629 0.874286 0.455915
vn 0.122693 0.927378 0.353436
vn 0.122694 0.927377 0.353437
vn 0.091231 0.966337 0.240562
vn 0.091222 0.966339 0.240556
vn 0.073181 0.989988 0.120702
vn 0.073180 0.989988 0.120701
vn 0.069116 0.997606 -0.002488
vn 0.069113 0.997606 -0.002493
vn 0.079148 0.988958 -0.125291
vn 0.079163 0.988960 -0.125267
vn 0.102983 0.964322 -0.243880
vn 0.102970 0.964317 -0.243905
vn 0.139869 0.924414 -0.354817
vn 0.139877 0.924421 -0.354797
vn 0.188717 0.870489 -0.454570
vn 0.188715 0.870486 -0.454577
vn 0.248030 0.804140 -0.540222
vn 0.248034 0.804156 -0.540197
vn 0.315991 0.727447 -0.609073
vn 0.315988 0.727417 -0.609111
vn 0.390540 0.642654 -0.659147
vn 0.390539 0.642664 -0.659137
vn 0.469440 0.552405 -0.688821
vn 0.469441 0.552397 -0.688827
vn 0.550264 0.459416 -0.697242
vn 0.550262 0.459425 -0.697238
vn 0.630560 0.366538 -0.684137
vn 0.630564 0.366520 -0.684143
vn 0.707918 0.276519 -0.649914
vn 0.707911 0.276553 -0.649909
vn 0.779939 0.192220 -0.595607
vn 0.779945 0.192195 -0.595607
vn 0.844468 0.116072 -0.522878
vn 0.844466 0.116082 -0.522879
vn 0.899542 0.050466 -0.433910
vn 0.899543 0.050459 -0.433908
vn 0.943476 -0.002632 -0.331430
vn 0.943472 -0.002609 -0.331441
vn 0.974938 -0.041573 -0.218559
vn 0.974939 -0.041579 -0.218554
vn 0.992978 -0.065231 -0.098690
vn 0.992978 -0.065235 -0.098687
vn 0.997042 -0.072851 0.024481
vn 0.997041 -0.072862 0.024494
vn 0.987009 -0.064216 0.147276
vn 0.987009 -0.064217 0.147276
vn 0.963181 -0.039570 0.265925
vn 0.963189 -0.039557 0.265899
vn 0.926293 0.000345 0.376803
vn 0.926293 0.000345 0.376803
vn 0.877450 0.054284 0.476587
vn 0.877455 0.054286 0.476577
vn 0.818159 0.120613 0.562200
vn 0.818158 0.120613 0.562201
vn 0.750188 0.197338 0.631091
vn 0.750177 0.197339 0.631104
vn 0.675635 0.282090 0.681133
vn -0.750177 -0.197338 -0.631104
vn -0.818155 -0.120604 -0.562207
vn -0.755334 -0.655155 -0.015590
vn -0.755333 -0.655156 -0.015591
vn -0.755342 -0.655145 -0.015581
vn -0.755342 -0.655146 -0.015590
vn -0.755338 -0.655150 -0.015590
vn -0.755334 -0.655154 -0.015590
vn -0.755338 -0.655149 -0.015591
vn -0.755340 -0.655148 -0.015592
vn -0.755329 -0.655160 -0.015585
vn -0.755335 -0.655154 -0.015585
vn -0.755335 -0.655153 -0.015581
vn -0.755339 -0.655148 -0.015596
vn -0.755337 -0.655151 -0.015595
vn -0.755336 -0.655153 -0.015596
vn -0.755337 -0.655151 -0.015580
vn -0.755337 -0.655151 -0.015587
vn -0.755344 -0.655144 -0.015577
vn -0.755334 -0.655154 -0.015596
vn -0.755328 -0.655162 -0.015601
vn -0.755334 -0.655155 -0.015590
vn -0.755345 -0.655142 -0.015582
vn -0.755330 -0.655159 -0.015599
vn -0.755337 -0.655151 -0.015588
vn -0.755341 -0.655147 -0.015577
vn -0.755334 -0.655154 -0.015576
vn -0.755335 -0.655153 -0.015600
vn -0.755336 -0.655153 -0.015597
vn -0.755334 -0.655154 -0.015584
vn -0.755340 -0.655148 -0.015597
vn -0.755335 -0.655153 -0.015581
vn -0.755335 -0.655153 -0.015587
vn -0.755340 -0.655148 -0.015591
vn -0.755335 -0.655154 -0.015585
vn -0.755335 -0.655154 -0.015590
vn -0.755341 -0.655146 -0.015590
vn -0.755338 -0.655150 -0.015590
vn -0.818157 -0.120596 -0.562206
vn -0.877448 -0.054275 -0.476592
vn -0.877450 -0.054263 -0.476589
vn -0.926299 -0.000315 -0.376789
vn -0.926290 -0.000360 -0.376810
vn -0.963187 0.039538 -0.265910
vn -0.963189 0.039555 -0.265899
vn -0.987010 0.064195 -0.147275
vn -0.987010 0.064197 -0.147274
vn -0.997043 0.072838 -0.024508
vn -0.997042 0.072850 -0.024494
vn -0.992975 0.065232 0.098716
vn -0.992977 0.065225 0.098706
vn -0.974939 0.041574 0.218553
vn -0.974939 0.041574 0.218553
vn -0.943476 0.002613 0.331432
vn -0.943480 0.002608 0.331418
vn -0.899550 -0.050482 0.433891
vn -0.899530 -0.050472 0.433934
vn -0.844460 -0.116075 0.522890
vn -0.844470 -0.116077 0.522873
vn -0.779945 -0.192198 0.595605
vn -0.779955 -0.192198 0.595592
vn -0.707906 -0.276557 0.649911
vn -0.707913 -0.276556 0.649905
vn -0.630589 -0.366519 0.684121
vn -0.630571 -0.366523 0.684135
vn -0.550280 -0.459406 0.697236
vn -0.550270 -0.459409 0.697242
vn -0.469418 -0.552422 0.688823
vn -0.469431 -0.552417 0.688818
vn -0.390545 -0.642658 0.659140
vn -0.390562 -0.642652 0.659136
vn -0.315991 -0.727433 0.609090
vn -0.315995 -0.727431 0.609090
vn -0.248021 -0.804158 0.540200
vn -0.248025 -0.804156 0.540200
vn -0.188729 -0.870481 0.454580
vn -0.188716 -0.870486 0.454577
vn -0.139880 -0.924415 0.354810
vn -0.139873 -0.924417 0.354807
vn -0.102980 -0.964316 0.243907
vn -0.102977 -0.964316 0.243906
vn -0.079151 -0.988962 0.125259
vn -0.079158 -0.988960 0.125265
vn -0.069125 -0.997605 0.002490
vn -0.069127 -0.997605 0.002493
vn -0.073193 -0.989987 -0.120700
vn -0.073191 -0.989987 -0.120703
vn -0.091229 -0.966339 -0.240554
vn -0.091227 -0.966338 -0.240557
vn -0.122693 -0.927375 -0.353443
vn -0.122691 -0.927374 -0.353446
vn -0.166624 -0.874285 -0.455919
vn -0.166627 -0.874290 -0.455909
vn -0.221703 -0.808675 -0.544878
vn -0.221706 -0.808685 -0.544862
vn -0.286240 -0.732554 -0.617602
vn -0.286240 -0.732552 -0.617603
vn -0.358258 -0.648230 -0.671899
vn -0.358258 -0.648219 -0.671910
vn -0.435610 -0.558226 -0.706136
vn -0.435608 -0.558244 -0.706123
vn -0.515916 -0.465345 -0.719225
vn -0.515920 -0.465319 -0.719239
vn -0.596731 -0.372350 -0.710822
vn -0.596729 -0.372359 -0.710819
vn -0.675623 -0.282109 -0.681137
vn -0.675625 -0.282101 -0.681139
vn -0.750176 -0.197340 -0.631104
f 1//1 2//1 3//1
f 1//2 4//2 2//2
f 4//3 5//3 2//3
f 4//4 6//4 5//4
f 6//5 7//5 5//5
f 6//6 8//6 7//6
f 8//7 9//7 7//7
f 9//8 8//8 10//8
f 11//9 9//9 10//9
f 11//10 10//10 12//10
f 13//11 11//11 12//11
f 13//12 12//12 14//12
f 15//13 13//13 14//13
f 15//14 14//14 16//14
f 17//15 15//15 16//15
f 17//16 16//16 18//16
f 19//17 17//17 18//17
f 19//18 18//18 20//18
f 21//19 19//19 20//19
f 21//20 20//20 22//20
f 23//21 21//21 22//21
f 23//22 22//22 24//22
f 25//23 23//23 24//23
f 25//24 24//24 26//24
f 27//25 25//25 26//25
f 27//26 26//26 28//26
f 29//27 27//27 28//27
f 28//28 30//28 29//28
f 30//29 31//29 29//29
f 30//30 32//30 31//30
f 32//31 33//31 31//31
f 32//32 34//32 33//32
f 34//33 35//33 33//33
f 34//34 36//34 35//34
f 36//35 37//35 35//35
f 36//36 38//36 37//36
f 38//37 39//37 37//37
f 38//38 40//38 39//38
f 40//39 41//39 39//39
f 40//40 42//40 41//40
f 42//41 43//41 41//41
f 42//42 44//42 43//42
f 44//43 45//43 43//43
f 45//44 44//44 46//44
f 47//45 45//45 46//45
f 47//46 46//46 48//46
f 49//47 47//47 48//47
f 49//48 48//48 50//48
f 51//49 49//49 50//49
f 51//50 50//50 52//50
f 53//51 51//51 52//51
f 53//52 52//52 54//52
f 55//53 53//53 54//53
f 55//54 54//54 56//54
f 57//55 55//55 56//55
f 57//56 56//56 58//56
f 59//57 57//57 58//57
f 59//58 58//58 60//58
f 61//59 59//59 60//59
f 61//60 60//60 62//60
f 63//61 61//61 62//61
f 63//62 62//62 64//62
f 65//63 63//63 64//63
f 64//64 66//64 65//64
f 66//65 67//65 65//65
f 66//66 68//66 67//66
f 68//67 69//67 67//67
f 68//68 70//68 69//68
f 70//69 71//69 69//69
f 70//70 72//70 71//70
f 72//71 3//71 71//71
f 72//72 1//72 3//72
f 37//73 73//73 35//73
f 74//74 35//74 73//74
f 75//75 73//75 76//75
f 75//76 76//76 77//76
f 75//77 74//77 73//77
f 75//78 78//78 79//78
f 75//79 79//79 74//79
f 80//80 78//80 75//80
f 81//81 80//81 75//81
f 82//82 81//82 75//82
f 83//83 82//83 75//83
f 84//84 83//84 75//84
f 85//85 84//85 75//85
f 86//86 85//86 75//86
f 87//87 86//87 75//87
f 88//88 87//88 75//88
f 89//89 88//89 75//89
f 90//90 75//90 91//90
f 92//91 75//91 90//91
f 89//92 75//92 92//92
f 93//93 75//93 94//93
f 95//94 75//94 93//94
f 91//95 75//95 95//95
f 96//96 75//96 97//96
f 98//97 75//97 96//97
f 94//98 75//98 98//98
f 75//99 99//99 100//99
f 75//100 100//100 97//100
f 75//101 101//101 99//101
f 75//102 102//102 103//102
f 75//103 103//103 101//103
f 75//104 104//104 102//104
f 75//105 105//105 106//105
f 75//106 106//106 104//106
f 75//107 107//107 105//107
f 75//108 108//108 109//108
f 75//109 109//109 107//109
f 75//110 77//110 108//110
f 74//111 33//111 35//111
f 79//112 33//112 74//112
f 79//113 31//113 33//113
f 78//114 31//114 79//114
f 78//115 29//115 31//115
f 80//116 29//116 78//116
f 80//117 27//117 29//117
f 81//118 27//118 80//118
f 81//119 25//119 27//119
f 82//120 25//120 81//120
f 82//121 23//121 25//121
f 83//122 23//122 82//122
f 83//123 21//123 23//123
f 21//124 83//124 84//124
f 84//125 19//125 21//125
f 85//126 19//126 84//126
f 19//127 85//127 17//127
f 86//128 17//128 85//128
f 86//129 15//129 17//129
f 87//130 15//130 86//130
f 87//131 13//131 15//131
f 88//132 13//132 87//132
f 88//133 11//133 13//133
f 11//134 88//134 89//134
f 11//135 89//135 9//135
f 9//136 89//136 92//136
f 9//137 92//137 7//137
f 7//138 92//138 90//138
f 7//139 90//139 5//139
f 5//140 90//140 91//140
f 5//141 91//141 2//141
f 95//142 2//142 91//142
f 95//143 3//143 2//143
f 3//144 95//144 93//144
f 93//145 71//145 3//145
f 71//146 93//146 94//146
f 71//147 94//147 69//147
f 69//148 94//148 98//148
f 69//149 98//149 67//149
f 67//150 98//150 96//150
f 67//151 96//151 65//151
f 65//152 96//152 97//152
f 65//153 97//153 63//153
f 63//154 97//154 100//154
f 63//155 100//155 61//155
f 61//156 100//156 99//156
f 61//157 99//157 59//157
f 59//158 99//158 101//158
f 59//159 101//159 57//159
f 103//160 57//160 101//160
f 103//161 55//161 57//161
f 55//162 103//162 102//162
f 102//163 53//163 55//163
f 53//164 102//164 104//164
f 53//165 104//165 51//165
f 51//166 104//166 106//166
f 51//167 106//167 49//167
f 49//168 106//168 105//168
f 49//169 105//169 47//169
f 107//170 47//170 105//170
f 107//171 45//171 47//171
f 109//172 45//172 107//172
f 109//173 43//173 45//173
f 108//174 43//174 109//174
f 108//175 41//175 43//175
f 77//176 41//176 108//176
f 77//177 39//177 41//177
f 39//178 77//178 76//178
f 76//179 37//179 39//179
f 73//180 37//180 76//180
f 72//181 110//181 1//181
f 111//182 1//182 110//182
f 112//183 113//183 114//183
f 112//184 110//184 113//184
f 112//185 111//185 110//185
f 112//186 115//186 116//186
f 112//187 117//187 115//187
f 112//188 114//188 117//188
f 118//189 112//189 119//189
f 119//190 112//190 120//190
f 112//191 116//191 120//191
f 121//192 112//192 118//192
f 122//193 112//193 123//193
f 123//194 112//194 121//194
f 124//195 112//195 122//195
f 125//196 112//196 126//196
f 126//197 112//197 124//197
f 127//198 112//198 125//198
f 128//199 112//199 129//199
f 129//200 112//200 127//200
f 130//201 112//201 128//201
f 131//202 112//202 132//202
f 132//203 112//203 130//203
f 112//204 133//204 111//204
f 134//205 135//205 112//205
f 112//206 135//206 133//206
f 136//207 137//207 112//207
f 137//208 138//208 112//208
f 138//209 134//209 112//209
f 139//210 140//210 112//210
f 140//211 141//211 112//211
f 141//212 136//212 112//212
f 142//213 143//213 112//213
f 143//214 144//214 112//214
f 144//215 139//215 112//215
f 145//216 112//216 131//216
f 142//217 112//217 146//217
f 146//218 112//218 145//218
f 111//219 4//219 1//219
f 133//220 4//220 111//220
f 133//221 6//221 4//221
f 135//222 6//222 133//222
f 135//223 8//223 6//223
f 134//224 8//224 135//224
f 134//225 10//225 8//225
f 10//226 134//226 138//226
f 10//227 138//227 12//227
f 12//228 138//228 137//228
f 12//229 137//229 14//229
f 14//230 137//230 136//230
f 14//231 136//231 16//231
f 141//232 16//232 136//232
f 16//233 141//233 18//233
f 18//234 141//234 140//234
f 140//235 20//235 18//235
f 20//236 140//236 139//236
f 20//237 139//237 22//237
f 22//238 139//238 144//238
f 22//239 144//239 24//239
f 24//240 144//240 143//240
f 24//241 143//241 26//241
f 26//242 143//242 142//242
f 26//243 142//243 28//243
f 28//244 142//244 146//244
f 28//245 146//245 30//245
f 30//246 146//246 145//246
f 30//247 145//247 32//247
f 32//248 145//248 131//248
f 32//249 131//249 34//249
f 132//250 34//250 131//250
f 34//251 132//251 36//251
f 36//252 132//252 130//252
f 130//253 38//253 36//253
f 38//254 130//254 128//254
f 38//255 128//255 40//255
f 40//256 128//256 129//256
f 40//257 129//257 42//257
f 42//258 129//258 127//258
f 42//259 127//259 44//259
f 44//260 127//260 125//260
f 44//261 125//261 46//261
f 126//262 46//262 125//262
f 126//263 48//263 46//263
f 124//264 48//264 126//264
f 124//265 50//265 48//265
f 122//266 50//266 124//266
f 122//267 52//267 50//267
f 52//268 122//268 123//268
f 52//269 123//269 54//269
f 121//270 54//270 123//270
f 54//271 121//271 56//271
f 118//272 56//272 121//272
f 118//273 58//273 56//273
f 119//274 58//274 118//274
f 119//275 60//275 58//275
f 120//276 60//276 119//276
f 120//277 62//277 60//277
f 116//278 62//278 120//278
f 116//279 64//279 62//279
f 115//280 64//280 116//280
f 115//281 66//281 64//281
f 117//282 66//282 115//282
f 117//283 68//283 66//283
f 114//284 68//284 117//284
f 114//285 70//285 68//285
f 70//286 114//286 113//286
f 113//287 72//287 70//287
f 110//288 72//288 113//288
