# Created by FreeCAD <http://www.freecadweb.org>
v -564.299927 1149.052246 923.505554
v -566.195923 1151.173950 926.126221
v -566.692444 1152.283813 924.097534
v -564.676636 1149.966187 921.614441
v -563.722046 1147.895996 925.203308
v -565.514526 1149.844727 927.960083
v -562.960388 1146.531982 926.656799
v -563.659180 1146.646851 930.890503
v -564.662842 1148.324829 929.559631
v -562.037659 1145.001099 927.822388
v -562.525146 1144.846802 931.924011
v -560.981689 1143.349365 928.665039
v -564.840820 1150.610229 919.586731
v -566.993347 1153.150513 921.917480
v -567.092224 1153.755493 919.633118
v -564.787598 1150.965088 917.483276
v -566.986877 1154.085571 917.293457
v -564.518616 1151.020142 915.367126
v -566.679626 1154.133667 914.948792
v -566.177124 1153.898926 912.649536
v -564.041809 1150.773682 913.301880
v -565.490051 1153.386230 910.445190
v -563.371643 1150.233276 911.349365
v -564.633240 1152.606689 908.383057
v -562.528076 1149.414917 909.568359
v -563.625122 1151.576904 906.507507
v -561.536560 1148.343262 908.012146
v -562.487366 1150.319214 904.858948
v -560.426758 1147.050415 906.727478
v -561.244446 1148.860596 903.472656
v -559.923035 1147.232422 902.378601
v -559.231995 1145.575195 905.752869
v -558.551636 1145.469604 901.600159
v -557.988098 1143.961914 905.117676
v -557.159607 1143.610229 901.154175
v -556.732422 1142.259033 904.840820
v -555.776978 1141.694092 901.050232
v -555.502625 1140.517456 904.930664
v -554.433411 1139.762329 901.290527
v -553.157837 1137.856689 901.869873
v -553.266479 1137.127197 906.188782
v -554.335632 1138.789551 905.384521
v -551.977661 1136.018066 902.775818
v -550.918274 1134.286011 903.988953
v -552.327148 1135.580322 907.319275
v -550.002441 1132.697632 905.483154
v -551.545959 1134.195068 908.742065
vn -0.808307 -0.576864 -0.117761
vn -0.808307 -0.576862 -0.117773
vn -0.808303 -0.576864 -0.117788
vn -0.808302 -0.576874 -0.117749
vn -0.808299 -0.576875 -0.117762
vn -0.808300 -0.576872 -0.117764
vn -0.808302 -0.576865 -0.117787
vn -0.808311 -0.576856 -0.117770
vn -0.808307 -0.576864 -0.117763
vn -0.808318 -0.576847 -0.117771
vn -0.808309 -0.576857 -0.117785
vn -0.808306 -0.576864 -0.117770
vn -0.808306 -0.576863 -0.117775
vn -0.808312 -0.576853 -0.117778
vn -0.808310 -0.576858 -0.117770
vn -0.808316 -0.576852 -0.117757
vn -0.808315 -0.576852 -0.117764
vn -0.808315 -0.576854 -0.117752
vn -0.808309 -0.576859 -0.117774
vn -0.808309 -0.576859 -0.117775
vn -0.808306 -0.576861 -0.117781
vn -0.808307 -0.576861 -0.117777
vn -0.808303 -0.576865 -0.117785
vn -0.808314 -0.576857 -0.117745
vn -0.808305 -0.576867 -0.117760
vn -0.808307 -0.576865 -0.117753
vn -0.808310 -0.576861 -0.117757
vn -0.808311 -0.576860 -0.117754
vn -0.808299 -0.576874 -0.117767
vn -0.808320 -0.576845 -0.117768
vn -0.808324 -0.576839 -0.117764
vn -0.808306 -0.576866 -0.117761
vn -0.808292 -0.576883 -0.117770
vn -0.808296 -0.576877 -0.117772
vn -0.808307 -0.576863 -0.117765
vn -0.808312 -0.576856 -0.117767
vn -0.808320 -0.576846 -0.117763
vn -0.808312 -0.576858 -0.117758
vn -0.808316 -0.576850 -0.117767
vn -0.808315 -0.576852 -0.117766
vn -0.808306 -0.576864 -0.117769
vn -0.808296 -0.576883 -0.117743
vn -0.808302 -0.576870 -0.117766
vn -0.808325 -0.576831 -0.117799
vn -0.808319 -0.576847 -0.117766
f 1//1 2//1 3//1
f 1//2 3//2 4//2
f 5//3 6//3 2//3
f 5//4 2//4 1//4
f 7//5 8//5 9//5
f 7//6 9//6 6//6
f 7//7 6//7 5//7
f 10//8 11//8 8//8
f 10//9 8//9 7//9
f 12//10 11//10 10//10
f 13//11 14//11 15//11
f 4//12 3//12 14//12
f 4//13 14//13 13//13
f 16//14 15//14 17//14
f 16//15 13//15 15//15
f 18//16 17//16 19//16
f 18//17 19//17 20//17
f 18//18 16//18 17//18
f 21//19 20//19 22//19
f 21//20 18//20 20//20
f 23//21 22//21 24//21
f 23//22 21//22 22//22
f 25//23 23//23 24//23
f 25//24 24//24 26//24
f 27//25 26//25 28//25
f 27//26 25//26 26//26
f 29//27 28//27 30//27
f 29//28 27//28 28//28
f 31//29 29//29 30//29
f 32//30 29//30 31//30
f 33//31 32//31 31//31
f 34//32 32//32 33//32
f 35//33 34//33 33//33
f 36//34 34//34 35//34
f 37//35 36//35 35//35
f 38//36 36//36 37//36
f 39//37 38//37 37//37
f 40//38 38//38 39//38
f 40//39 41//39 42//39
f 40//40 42//40 38//40
f 43//41 41//41 40//41
f 44//42 45//42 41//42
f 44//43 41//43 43//43
f 46//44 47//44 45//44
f 46//45 45//45 44//45
