# Created by FreeCAD <http://www.freecadweb.org>
v -614.256958 1107.927734 924.386902
v -560.981689 1143.349365 928.665039
v -612.713440 1106.430298 921.127930
v -562.525146 1144.846802 931.924011
v -562.037659 1145.001099 927.822388
v -613.769470 1108.082031 920.285217
v -562.960388 1146.531982 926.656799
v -614.692139 1109.612915 919.119690
v -563.722046 1147.895996 925.203308
v -615.453857 1110.976929 917.666199
v -564.299927 1149.052246 923.505554
v -616.031738 1112.133301 915.968445
v -564.676636 1149.966187 921.614441
v -616.408386 1113.047119 914.077332
v -564.840820 1150.610229 919.586731
v -616.572571 1113.691162 912.049622
v -564.787598 1150.965088 917.483276
v -616.519409 1114.046021 909.946106
v -564.518616 1151.020142 915.367126
v -616.250366 1114.101074 907.830017
v -564.041809 1150.773682 913.301880
v -615.773621 1113.854736 905.764709
v -563.371643 1150.233276 911.349365
v -615.103394 1113.314209 903.812256
v -562.528076 1149.414917 909.568359
v -614.259888 1112.495850 902.031189
v -561.536560 1148.343262 908.012146
v -613.268311 1111.424194 900.475037
v -560.426758 1147.050415 906.727478
v -612.158508 1110.131348 899.190369
v -559.231995 1145.575195 905.752869
v -610.963745 1108.656128 898.215759
v -557.988098 1143.961914 905.117676
v -609.719849 1107.042847 897.580566
v -556.732422 1142.259033 904.840820
v -608.464233 1105.339966 897.303711
v -555.502625 1140.517456 904.930664
v -607.234436 1103.598389 897.393555
v -554.335632 1138.789551 905.384521
v -606.067444 1101.870483 897.847412
v -553.266479 1137.127197 906.188782
v -604.998230 1100.208130 898.651672
v -552.327148 1135.580322 907.319275
v -604.058960 1098.661255 899.782166
v -551.545959 1134.195068 908.742065
v -603.277710 1097.276123 901.204956
v -550.002441 1132.697632 905.483154
v -601.734253 1095.778687 897.945984
v -563.659180 1146.646851 930.890503
v -615.390930 1109.727783 923.353333
v -564.662842 1148.324829 929.559631
v -616.394592 1111.405762 922.022522
v -565.514526 1149.844727 927.960083
v -617.246277 1112.925659 920.422974
v -566.195923 1151.173950 926.126221
v -617.927673 1114.254883 918.589111
v -566.692444 1152.283813 924.097534
v -618.424194 1115.364868 916.560364
v -566.993347 1153.150513 921.917480
v -618.725098 1116.231567 914.380371
v -567.092224 1153.755493 919.633118
v -618.823975 1116.836426 912.096008
v -566.986877 1154.085571 917.293457
v -618.718689 1117.166504 909.756287
v -566.679626 1154.133667 914.948792
v -618.411438 1117.214600 907.411621
v -566.177124 1153.898926 912.649536
v -617.908875 1116.979858 905.112427
v -565.490051 1153.386230 910.445190
v -617.221802 1116.467163 902.908020
v -564.633240 1152.606689 908.383057
v -616.365051 1115.687622 900.845947
v -563.625122 1151.576904 906.507507
v -615.356934 1114.657959 898.970398
v -562.487366 1150.319214 904.858948
v -614.219177 1113.400269 897.321777
v -561.244446 1148.860596 903.472656
v -612.976196 1111.941650 895.935547
v -559.923035 1147.232422 902.378601
v -611.654846 1110.313354 894.841492
v -558.551636 1145.469604 901.600159
v -610.283386 1108.550659 894.063049
v -557.159607 1143.610229 901.154175
v -608.891357 1106.691162 893.617065
v -555.776978 1141.694092 901.050232
v -607.508728 1104.775024 893.513123
v -554.433411 1139.762329 901.290527
v -606.165222 1102.843384 893.753357
v -553.157837 1137.856689 901.869873
v -604.889648 1100.937744 894.332764
v -551.977661 1136.018066 902.775818
v -603.709473 1099.099121 895.238708
v -550.918274 1134.286011 903.988953
v -602.650085 1097.366943 896.451843
vn -0.436315 0.721214 -0.538033
vn -0.436318 0.721217 -0.538026
vn -0.318958 0.260919 0.911146
vn -0.318967 0.260931 0.911139
vn -0.399579 0.390589 0.829323
vn -0.399573 0.390580 0.829330
vn -0.468215 0.508552 0.722599
vn -0.468210 0.508544 0.722608
vn -0.522785 0.611227 0.594220
vn -0.522775 0.611209 0.594248
vn -0.561667 0.695555 0.448033
vn -0.561678 0.695578 0.447983
vn -0.583709 0.759038 0.288349
vn -0.583709 0.759038 0.288349
vn -0.588230 0.799735 0.120034
vn -0.588230 0.799733 0.120047
vn -0.575103 0.816435 -0.051861
vn -0.575102 0.816435 -0.051878
vn -0.544711 0.808635 -0.222258
vn -0.544725 0.808644 -0.222192
vn -0.498003 0.776593 -0.385871
vn -0.497983 0.776574 -0.385935
vn -0.436309 0.721208 -0.538046
vn -0.436319 0.721219 -0.538023
vn -0.361557 0.644218 -0.673988
vn -0.361544 0.644203 -0.674010
vn -0.275937 0.547876 -0.789741
vn -0.275937 0.547876 -0.789741
vn -0.182051 0.435111 -0.881780
vn -0.182051 0.435111 -0.881780
vn -0.082679 0.309260 -0.947377
vn -0.082679 0.309260 -0.947377
vn 0.019138 0.174177 -0.984528
vn 0.019138 0.174177 -0.984528
vn 0.120403 0.033839 -0.992148
vn 0.120403 0.033839 -0.992148
vn 0.218053 -0.107514 -0.969997
vn 0.218053 -0.107514 -0.969997
vn 0.309166 -0.245649 -0.918734
vn 0.309162 -0.245642 -0.918738
vn 0.390993 -0.376398 -0.839910
vn 0.390998 -0.376406 -0.839904
vn 0.461076 -0.495833 -0.735907
vn 0.461081 -0.495843 -0.735897
vn -0.436316 0.721218 -0.538027
vn -0.436311 0.721212 -0.538039
vn 0.341689 -0.296732 -0.891739
vn 0.341706 -0.296756 -0.891725
vn 0.408143 -0.404852 -0.818238
vn 0.408134 -0.404837 -0.818250
vn 0.465807 -0.504247 -0.727158
vn 0.465807 -0.504247 -0.727158
vn 0.513453 -0.592795 -0.620451
vn 0.513453 -0.592795 -0.620451
vn 0.550062 -0.668599 -0.500408
vn 0.550057 -0.668589 -0.500426
vn 0.574849 -0.730042 -0.369578
vn 0.574847 -0.730038 -0.369587
vn 0.587271 -0.775766 -0.230870
vn 0.587273 -0.775775 -0.230831
vn 0.587072 -0.804834 -0.087112
vn 0.587073 -0.804832 -0.087125
vn 0.574246 -0.816590 0.058500
vn 0.574246 -0.816590 0.058500
vn 0.549087 -0.810792 0.202780
vn 0.549084 -0.810789 0.202799
vn 0.512106 -0.787555 0.342791
vn 0.512108 -0.787557 0.342783
vn 0.464128 -0.747396 0.475379
vn 0.464128 -0.747396 0.475379
vn 0.406152 -0.691149 0.597790
vn 0.406166 -0.691166 0.597762
vn 0.339456 -0.620056 0.707319
vn 0.339464 -0.620066 0.707306
vn 0.265480 -0.535652 0.801622
vn 0.265466 -0.535634 0.801638
vn 0.185767 -0.439695 0.878726
vn 0.185757 -0.439683 0.878734
vn 0.102084 -0.334316 0.936916
vn 0.102092 -0.334327 0.936911
vn 0.016192 -0.221732 0.974973
vn 0.016185 -0.221723 0.974975
vn -0.070057 -0.104367 0.992068
vn -0.070057 -0.104367 0.992068
vn -0.154786 0.015222 0.987831
vn -0.154775 0.015205 0.987833
vn -0.236184 0.134478 0.962358
vn -0.236197 0.134499 0.962352
vn -0.312505 0.250847 0.916197
vn -0.312505 0.250847 0.916197
vn -0.382124 0.361847 0.850322
vn -0.382116 0.361832 0.850332
vn -0.443510 0.465037 0.766185
vn -0.443511 0.465040 0.766183
vn 0.808311 0.576859 0.117760
vn 0.808301 0.576868 0.117783
vn 0.808307 0.576862 0.117776
vn 0.808312 0.576858 0.117756
vn 0.808308 0.576863 0.117761
vn 0.808302 0.576867 0.117784
vn 0.808317 0.576850 0.117757
vn 0.808330 0.576832 0.117757
vn 0.808310 0.576857 0.117776
vn 0.808307 0.576861 0.117778
vn 0.808294 0.576879 0.117776
vn 0.808307 0.576865 0.117757
vn 0.808307 0.576865 0.117754
vn 0.808306 0.576867 0.117753
vn 0.808314 0.576849 0.117783
vn 0.808299 0.576873 0.117775
vn 0.808304 0.576865 0.117774
vn 0.808312 0.576853 0.117777
vn 0.808304 0.576864 0.117780
vn 0.808310 0.576856 0.117780
vn 0.808314 0.576851 0.117778
vn 0.808306 0.576861 0.117778
vn 0.808310 0.576857 0.117776
vn 0.808313 0.576856 0.117757
vn 0.808316 0.576850 0.117767
vn 0.808316 0.576849 0.117770
vn 0.808312 0.576859 0.117755
vn 0.808313 0.576860 0.117743
vn 0.808315 0.576854 0.117754
vn 0.808312 0.576853 0.117778
vn 0.808308 0.576864 0.117756
vn 0.808306 0.576862 0.117781
vn 0.808303 0.576864 0.117785
vn 0.808308 0.576861 0.117770
vn 0.808308 0.576861 0.117770
vn 0.808310 0.576860 0.117762
vn 0.808324 0.576839 0.117769
vn 0.808302 0.576870 0.117768
vn 0.808300 0.576873 0.117764
vn 0.808300 0.576872 0.117764
vn 0.808323 0.576841 0.117768
vn 0.808310 0.576856 0.117780
vn 0.808300 0.576873 0.117762
vn 0.808310 0.576857 0.117776
vn 0.808313 0.576852 0.117783
f 1//1 2//1 3//1
f 1//2 4//2 2//2
f 2//3 5//3 3//3
f 3//4 5//4 6//4
f 5//5 7//5 6//5
f 6//6 7//6 8//6
f 7//7 9//7 8//7
f 8//8 9//8 10//8
f 9//9 11//9 10//9
f 10//10 11//10 12//10
f 11//11 13//11 12//11
f 12//12 13//12 14//12
f 13//13 15//13 14//13
f 14//14 15//14 16//14
f 17//15 16//15 15//15
f 18//16 16//16 17//16
f 19//17 18//17 17//17
f 20//18 18//18 19//18
f 21//19 20//19 19//19
f 22//20 20//20 21//20
f 23//21 22//21 21//21
f 24//22 22//22 23//22
f 25//23 24//23 23//23
f 26//24 24//24 25//24
f 27//25 26//25 25//25
f 28//26 26//26 27//26
f 29//27 28//27 27//27
f 30//28 28//28 29//28
f 31//29 30//29 29//29
f 32//30 30//30 31//30
f 33//31 32//31 31//31
f 34//32 32//32 33//32
f 33//33 35//33 34//33
f 34//34 35//34 36//34
f 35//35 37//35 36//35
f 36//36 37//36 38//36
f 37//37 39//37 38//37
f 38//38 39//38 40//38
f 39//39 41//39 40//39
f 40//40 41//40 42//40
f 41//41 43//41 42//41
f 42//42 43//42 44//42
f 43//43 45//43 44//43
f 44//44 45//44 46//44
f 46//45 47//45 48//45
f 46//46 45//46 47//46
f 49//47 4//47 1//47
f 50//48 49//48 1//48
f 51//49 49//49 50//49
f 52//50 51//50 50//50
f 53//51 51//51 52//51
f 54//52 53//52 52//52
f 55//53 53//53 54//53
f 56//54 55//54 54//54
f 57//55 55//55 56//55
f 58//56 57//56 56//56
f 59//57 57//57 58//57
f 60//58 59//58 58//58
f 61//59 59//59 60//59
f 62//60 61//60 60//60
f 61//61 62//61 63//61
f 62//62 64//62 63//62
f 63//63 64//63 65//63
f 64//64 66//64 65//64
f 65//65 66//65 67//65
f 66//66 68//66 67//66
f 67//67 68//67 69//67
f 68//68 70//68 69//68
f 69//69 70//69 71//69
f 70//70 72//70 71//70
f 71//71 72//71 73//71
f 72//72 74//72 73//72
f 73//73 74//73 75//73
f 74//74 76//74 75//74
f 75//75 76//75 77//75
f 76//76 78//76 77//76
f 77//77 78//77 79//77
f 78//78 80//78 79//78
f 79//79 80//79 81//79
f 80//80 82//80 81//80
f 83//81 81//81 82//81
f 84//82 83//82 82//82
f 85//83 83//83 84//83
f 86//84 85//84 84//84
f 87//85 85//85 86//85
f 88//86 87//86 86//86
f 89//87 87//87 88//87
f 90//88 89//88 88//88
f 91//89 89//89 90//89
f 92//90 91//90 90//90
f 93//91 91//91 92//91
f 94//92 93//92 92//92
f 47//93 93//93 94//93
f 48//94 47//94 94//94
f 26//95 72//95 24//95
f 28//96 74//96 26//96
f 26//97 74//97 72//97
f 30//98 76//98 28//98
f 28//99 76//99 74//99
f 30//100 78//100 76//100
f 32//101 80//101 30//101
f 30//102 80//102 78//102
f 36//103 82//103 34//103
f 34//104 82//104 32//104
f 32//105 82//105 80//105
f 46//106 48//106 44//106
f 44//107 94//107 42//107
f 48//108 94//108 44//108
f 94//109 92//109 42//109
f 42//110 90//110 40//110
f 92//111 90//111 42//111
f 40//112 88//112 38//112
f 90//113 88//113 40//113
f 38//114 86//114 36//114
f 88//115 86//115 38//115
f 86//116 84//116 36//116
f 84//117 82//117 36//117
f 12//118 14//118 58//118
f 14//119 60//119 58//119
f 14//120 16//120 60//120
f 16//121 62//121 60//121
f 16//122 18//122 62//122
f 18//123 64//123 62//123
f 18//124 20//124 64//124
f 20//125 66//125 64//125
f 22//126 68//126 20//126
f 20//127 68//127 66//127
f 24//128 70//128 22//128
f 22//129 70//129 68//129
f 24//130 72//130 70//130
f 1//131 6//131 50//131
f 3//132 6//132 1//132
f 50//133 8//133 52//133
f 52//134 8//134 54//134
f 6//135 8//135 50//135
f 54//136 10//136 56//136
f 8//137 10//137 54//137
f 10//138 12//138 56//138
f 12//139 58//139 56//139
