# Created by FreeCAD <http://www.freecadweb.org>
v 437.120850 1143.676147 923.910828
v 437.479279 1146.550415 926.474792
v 438.171906 1147.564331 924.453308
v 437.723907 1144.479126 922.028076
v 436.461029 1142.559937 925.605591
v 436.738312 1145.250366 928.306458
v 435.764313 1141.164062 927.061462
v 435.175781 1141.909058 931.247620
v 435.964935 1143.692139 929.908875
v 435.051575 1139.530396 928.234741
v 434.387787 1139.939697 932.293945
v 434.344208 1137.708008 929.090332
v 438.252197 1144.944946 920.013794
v 438.801270 1148.270264 922.285400
v 439.353882 1148.653076 920.017761
v 438.689789 1145.059570 917.928406
v 439.817841 1148.704468 917.699036
v 439.023590 1144.819580 915.834534
v 440.183167 1148.423340 915.379211
v 440.442017 1147.815796 913.108093
v 439.243591 1144.232056 913.794983
v 440.588837 1146.894897 910.934509
v 439.343170 1143.314697 911.870911
v 440.620422 1145.680420 908.905151
v 439.319336 1142.095093 910.120117
v 440.536163 1144.198486 907.063721
v 439.172852 1140.609741 908.595093
v 440.337799 1142.480957 905.449768
v 438.908051 1138.903198 907.341614
v 440.029663 1140.564697 904.098022
v 439.618347 1138.490967 903.037537
v 438.532898 1137.026855 906.397278
v 439.112671 1136.304321 902.291077
v 438.058655 1135.036743 905.790466
v 438.523560 1134.051880 901.874695
v 437.499573 1132.992798 905.539307
v 437.863617 1131.781982 901.797424
v 436.872375 1130.956299 905.651367
v 437.147095 1129.543335 902.060791
v 436.389343 1127.384155 902.659302
v 435.490540 1127.147827 906.941040
v 436.195953 1128.988281 906.123352
v 435.606689 1125.350952 903.579895
v 434.815948 1123.487305 904.802917
v 434.777313 1125.490234 908.079834
v 434.034119 1121.833374 906.302063
v 434.077728 1124.065063 909.505676
vn -0.942456 0.280210 -0.182372
vn -0.942457 0.280209 -0.182368
vn -0.942456 0.280210 -0.182371
vn -0.942456 0.280210 -0.182372
vn -0.942462 0.280193 -0.182366
vn -0.942455 0.280207 -0.182379
vn -0.942459 0.280203 -0.182364
vn -0.942456 0.280208 -0.182371
vn -0.942459 0.280203 -0.182367
vn -0.942459 0.280198 -0.182370
vn -0.942459 0.280199 -0.182371
vn -0.942459 0.280205 -0.182362
vn -0.942456 0.280205 -0.182380
vn -0.942459 0.280203 -0.182368
vn -0.942461 0.280200 -0.182362
vn -0.942455 0.280210 -0.182375
vn -0.942455 0.280210 -0.182375
vn -0.942460 0.280204 -0.182361
vn -0.942455 0.280207 -0.182378
vn -0.942455 0.280207 -0.182378
vn -0.942456 0.280214 -0.182364
vn -0.942455 0.280210 -0.182375
vn -0.942456 0.280211 -0.182366
vn -0.942456 0.280207 -0.182378
vn -0.942458 0.280210 -0.182360
vn -0.942457 0.280200 -0.182384
vn -0.942461 0.280194 -0.182370
vn -0.942461 0.280194 -0.182371
vn -0.942461 0.280195 -0.182369
vn -0.942454 0.280217 -0.182370
vn -0.942456 0.280207 -0.182375
vn -0.942460 0.280196 -0.182374
vn -0.942457 0.280206 -0.182370
vn -0.942459 0.280201 -0.182369
vn -0.942456 0.280214 -0.182364
vn -0.942454 0.280220 -0.182365
vn -0.942460 0.280197 -0.182372
vn -0.942459 0.280198 -0.182372
vn -0.942458 0.280203 -0.182371
vn -0.942461 0.280194 -0.182367
vn -0.942456 0.280212 -0.182370
vn -0.942452 0.280215 -0.182386
vn -0.942458 0.280205 -0.182366
vn -0.942464 0.280192 -0.182357
vn -0.942458 0.280200 -0.182377
f 1//1 2//1 3//1
f 1//2 3//2 4//2
f 5//3 6//3 2//3
f 5//4 2//4 1//4
f 7//5 8//5 9//5
f 7//6 9//6 6//6
f 7//7 6//7 5//7
f 10//8 11//8 8//8
f 10//9 8//9 7//9
f 12//10 11//10 10//10
f 13//11 14//11 15//11
f 4//12 3//12 14//12
f 4//13 14//13 13//13
f 16//14 15//14 17//14
f 16//15 13//15 15//15
f 18//16 17//16 19//16
f 18//17 19//17 20//17
f 18//18 16//18 17//18
f 21//19 20//19 22//19
f 21//20 18//20 20//20
f 23//21 22//21 24//21
f 23//22 21//22 22//22
f 25//23 23//23 24//23
f 25//24 24//24 26//24
f 27//25 26//25 28//25
f 27//26 25//26 26//26
f 29//27 28//27 30//27
f 29//28 27//28 28//28
f 31//29 29//29 30//29
f 32//30 29//30 31//30
f 33//31 32//31 31//31
f 34//32 32//32 33//32
f 35//33 34//33 33//33
f 36//34 34//34 35//34
f 37//35 36//35 35//35
f 38//36 36//36 37//36
f 39//37 38//37 37//37
f 40//38 38//38 39//38
f 40//39 41//39 42//39
f 40//40 42//40 38//40
f 43//41 41//41 40//41
f 44//42 45//42 41//42
f 44//43 41//43 43//43
f 46//44 47//44 45//44
f 46//45 45//45 44//45
